<svg xmlns="http://www.w3.org/2000/svg"><path d="M5.64 8.88c-.693 0-1.353.453-1.98 1.36-.12.173-.233.36-.34.56-.387.773-.713 1.873-.98 3.3-.08.453-.12.813-.12 1.08 0 .907.253 1.493.76 1.76.147.08.32.12.52.12.747 0 1.5-.473 2.26-1.42.187-.213.313-.433.38-.66v-.02a.154.154 0 00.02-.06l1-3.92c.04-.2.06-.313.06-.34 0-.28-.12-.62-.36-1.02-.293-.493-.7-.74-1.22-.74zm-.02-.44c.813 0 1.427.427 1.84 1.28.067-.453.273-.733.62-.84a.587.587 0 01.22-.04c.347 0 .54.18.58.54 0 .08-.047.307-.14.68l-.72 2.8c-.2.84-.347 1.44-.44 1.8-.173.693-.26 1.187-.26 1.48 0 .613.2.92.6.92.507 0 .933-.533 1.28-1.6.067-.227.147-.52.24-.88.107-.227.2-.347.28-.36.16 0 .24.067.24.2 0 .2-.12.667-.36 1.4-.08.227-.16.42-.24.58-.373.733-.867 1.1-1.48 1.1-.747 0-1.287-.32-1.62-.96a1.74 1.74 0 01-.2-.54c-.84 1-1.707 1.5-2.6 1.5-1 0-1.74-.453-2.22-1.36C.947 15.607.8 14.993.8 14.3c0-1.44.5-2.773 1.5-4 .933-1.12 1.947-1.733 3.04-1.84.093-.013.187-.02.28-.02zM14.992 8.44c1.026 0 1.746.507 2.16 1.52.426-.827.993-1.32 1.7-1.48.133-.027.266-.04.4-.04.786 0 1.34.22 1.66.66.133.187.2.407.2.66 0 .547-.247.913-.74 1.1-.12.04-.234.06-.34.06-.414 0-.66-.18-.74-.54a.657.657 0 01-.02-.16c0-.4.193-.713.58-.94.12-.067.246-.113.38-.14-.28-.173-.614-.26-1-.26-.907 0-1.547.707-1.92 2.12a1.58 1.58 0 00-.06.24l-.68 2.74c-.227.907-.34 1.493-.34 1.76 0 .693.246 1.113.74 1.26.106.04.226.06.36.06.666 0 1.273-.333 1.82-1 .36-.427.64-.967.84-1.62.04-.147.126-.22.26-.22.16 0 .24.067.24.2 0 .333-.207.813-.62 1.44-.72 1.093-1.58 1.64-2.58 1.64-.907 0-1.567-.38-1.98-1.14-.08-.12-.14-.247-.18-.38-.32.64-.76 1.087-1.32 1.34-.254.12-.514.18-.78.18-.8 0-1.36-.233-1.68-.7a.987.987 0 01-.2-.62c0-.493.213-.84.64-1.04.146-.08.3-.12.46-.12.4 0 .64.167.72.5.013.067.02.133.02.2 0 .453-.227.787-.68 1a.844.844 0 01-.26.08c.28.173.613.26 1 .26.706 0 1.266-.473 1.68-1.42.08-.2.153-.42.22-.66.72-2.72 1.08-4.307 1.08-4.76-.08-.827-.44-1.273-1.08-1.34-.694 0-1.327.353-1.9 1.06v.02c0 .013-.007.02-.02.02-.2.267-.38.573-.54.92-.067.16-.127.32-.18.48l-.04.12c-.027.147-.114.22-.26.22-.16 0-.24-.067-.24-.2 0-.333.213-.813.64-1.44.72-1.093 1.58-1.64 2.58-1.64zM25.32-.302c1.027 0 1.825.346 2.394 1.036.327.402.514.878.56 1.428.01.084.014.168.014.252 0 .682-.256 1.33-.77 1.946-.27.318-.69.738-1.26 1.26l-.854.756-.14.126-1.484 1.442h2.52c.822 0 1.265-.037 1.33-.112.094-.13.196-.546.308-1.246h.35l-.392 2.436h-5.194c0-.233.028-.382.084-.448l.07-.07 2.688-2.996c.98-1.101 1.47-2.132 1.47-3.094 0-.83-.252-1.46-.756-1.89L26.244.51h-.014c-.298-.252-.662-.378-1.092-.378-.672 0-1.208.29-1.61.868a2.617 2.617 0 00-.28.56.725.725 0 01.182-.014c.374 0 .612.168.714.504v.014a.761.761 0 01.028.21c0 .374-.177.612-.532.714a.823.823 0 01-.196.028c-.345 0-.574-.144-.686-.434a1.02 1.02 0 01-.056-.35c0-.718.276-1.334.826-1.848.495-.457 1.092-.686 1.792-.686zM41.727 5.62c.267 0 .4.22.4.66v5.6h5.58c.427 0 .647.133.66.4 0 .267-.22.4-.66.4h-5.58v5.6c0 .427-.133.647-.4.66-.267 0-.4-.22-.4-.66v-5.6h-5.6c-.427 0-.647-.133-.66-.4 0-.267.22-.4.66-.4h5.6v-5.6c0-.427.133-.647.4-.66zM59.547 8.88c-.8 0-1.6.533-2.4 1.6-.107.133-.207.367-.3.7l-.44 1.84c-.213.84-.32 1.513-.32 2.02 0 1.147.347 1.807 1.04 1.98.093.027.193.04.3.04.707 0 1.367-.467 1.98-1.4.133-.2.26-.42.38-.66.36-.76.66-1.787.9-3.08.08-.467.12-.853.12-1.16 0-1.067-.327-1.68-.98-1.84l-.02-.02a1.584 1.584 0 00-.26-.02zm-1.08-5.48c.173 0 .26.073.26.22l-1.48 6.02c.773-.8 1.553-1.2 2.34-1.2 1 0 1.747.46 2.24 1.38.28.533.42 1.14.42 1.82 0 1.413-.493 2.733-1.48 3.96-.92 1.133-1.933 1.76-3.04 1.88-.107.013-.207.02-.3.02-.96 0-1.673-.447-2.14-1.34-.267-.507-.4-1.107-.4-1.8 0-.453.107-1.127.32-2.02l1.64-6.52c.187-.787.28-1.2.28-1.24 0-.147-.093-.24-.28-.28-.16-.04-.4-.06-.72-.06-.293 0-.453-.08-.48-.24 0-.227.127-.36.38-.4l2.44-.2zM66.95 8.44c1.027 0 1.747.507 2.16 1.52.427-.827.994-1.32 1.7-1.48.134-.027.267-.04.4-.04.787 0 1.34.22 1.66.66.134.187.2.407.2.66 0 .547-.246.913-.74 1.1-.12.04-.233.06-.34.06-.413 0-.66-.18-.74-.54a.658.658 0 01-.02-.16c0-.4.194-.713.58-.94.12-.067.247-.113.38-.14-.28-.173-.613-.26-1-.26-.906 0-1.546.707-1.92 2.12a1.58 1.58 0 00-.06.24l-.68 2.74c-.226.907-.34 1.493-.34 1.76 0 .693.247 1.113.74 1.26.107.04.227.06.36.06.667 0 1.274-.333 1.82-1 .36-.427.64-.967.84-1.62.04-.147.127-.22.26-.22.16 0 .24.067.24.2 0 .333-.206.813-.62 1.44-.72 1.093-1.58 1.64-2.58 1.64-.906 0-1.566-.38-1.98-1.14-.08-.12-.14-.247-.18-.38-.32.64-.76 1.087-1.32 1.34-.253.12-.513.18-.78.18-.8 0-1.36-.233-1.68-.7a.987.987 0 01-.2-.62c0-.493.214-.84.64-1.04.147-.08.3-.12.46-.12.4 0 .64.167.72.5.014.067.02.133.02.2 0 .453-.226.787-.68 1a.844.844 0 01-.26.08c.28.173.614.26 1 .26.707 0 1.267-.473 1.68-1.42.08-.2.154-.42.22-.66.72-2.72 1.08-4.307 1.08-4.76-.08-.827-.44-1.273-1.08-1.34-.693 0-1.326.353-1.9 1.06v.02c0 .013-.006.02-.02.02-.2.267-.38.573-.54.92-.066.16-.126.32-.18.48l-.04.12c-.026.147-.113.22-.26.22-.16 0-.24-.067-.24-.2 0-.333.214-.813.64-1.44.72-1.093 1.58-1.64 2.58-1.64zM86.185 5.62c.267 0 .4.22.4.66v5.6h5.58c.427 0 .647.133.66.4 0 .267-.22.4-.66.4h-5.58v5.6c0 .427-.133.647-.4.66-.266 0-.4-.22-.4-.66v-5.6h-5.6c-.426 0-.646-.133-.66-.4 0-.267.22-.4.66-.4h5.6v-5.6c0-.427.134-.647.4-.66zM104.585 8.44c1.027 0 1.74.313 2.14.94.147.24.22.5.22.78 0 .587-.233.987-.7 1.2a1.12 1.12 0 01-.42.08c-.4 0-.64-.173-.72-.52a.744.744 0 01-.02-.18c0-.293.12-.553.36-.78.187-.187.48-.28.88-.28-.373-.48-.946-.747-1.72-.8-.866 0-1.653.44-2.36 1.32-.173.213-.326.44-.46.68-.533.973-.88 2.12-1.04 3.44-.026.213-.04.4-.04.56 0 1.093.374 1.78 1.12 2.06.187.08.414.12.68.12 1.2 0 2.28-.4 3.24-1.2.28-.227.534-.487.76-.78.094-.133.18-.2.26-.2.12 0 .2.087.24.26 0 .147-.226.433-.68.86-1.106 1-2.393 1.5-3.86 1.5-1.266 0-2.186-.507-2.76-1.52-.32-.547-.48-1.167-.48-1.86 0-1.36.52-2.62 1.56-3.78 1.027-1.147 2.174-1.773 3.44-1.88.12-.013.24-.02.36-.02zM114.416 13.82h11.94c.427 0 .653.133.68.4 0 .267-.22.4-.66.4h-11.98c-.427 0-.647-.133-.66-.4 0-.267.227-.4.68-.4zm-.02-3.88h11.98c.427 0 .647.133.66.4 0 .267-.227.4-.68.4h-11.94c-.427 0-.653-.133-.68-.4 0-.267.22-.4.66-.4zM138.707 4.4c-.933 0-1.613.467-2.04 1.4-.146.32-.26.707-.34 1.16-.106.72-.16 1.947-.16 3.68 0 2.013.074 3.42.22 4.22.24 1.28.827 2.06 1.76 2.34.187.053.374.08.56.08.84 0 1.487-.407 1.94-1.22.187-.36.32-.787.4-1.28.147-.853.22-2.233.22-4.14 0-1.853-.066-3.153-.2-3.9-.24-1.267-.853-2.027-1.84-2.28a2.306 2.306 0 00-.52-.06zm-.22-.44h.24c1.187 0 2.154.473 2.9 1.42v.02c.187.24.354.507.5.8.534 1.133.8 2.693.8 4.68 0 1.947-.246 3.453-.74 4.52-.786 1.493-1.946 2.267-3.48 2.32-1.213 0-2.186-.48-2.92-1.44a2.904 2.904 0 01-.38-.58c-.6-1.107-.9-2.713-.9-4.82 0-1.96.247-3.473.74-4.54.667-1.493 1.747-2.287 3.24-2.38z"/></svg>