<?xml version="1.0" encoding="UTF-8" ?>
<svg xmlns="http://www.w3.org/2000/svg" version="1.1" >
<path d="M 5.6399998664856 8.88005638122559 C 4.94666624069214 8.88005638122559 4.28666639328003 9.33338928222656 3.65999984741211 10.2400560379028 C 3.53999996185303 10.4133892059326 3.42666673660278 10.6000566482544 3.3199999332428 10.8000564575195 C 2.93333339691162 11.573390007019 2.60666656494141 12.6733894348145 2.33999991416931 14.1000556945801 C 2.25999975204468 14.5533895492554 2.21999979019165 14.9133892059326 2.22000002861023 15.1800556182861 C 2.21999979019165 16.0867233276367 2.47333335876465 16.6733894348145 2.98000001907349 16.940055847168 C 3.12666630744934 17.020055770874 3.29999971389771 17.0600566864014 3.5 17.0600566864014 C 4.246666431427 17.0600566864014 4.99999952316284 16.5867233276367 5.75999975204468 15.6400556564331 C 5.94666624069214 15.4267225265503 6.07333278656006 15.2067222595215 6.1399998664856 14.980055809021 L 6.1399998664856 14.9600563049316 C 6.15333271026611 14.9333896636963 6.15999937057495 14.9133892059326 6.15999984741211 14.9000558853149 L 7.15999984741211 10.9800567626953 C 7.19999980926514 10.7800559997559 7.21999979019165 10.6667232513428 7.21999979019165 10.6400566101074 C 7.21999979019165 10.3600559234619 7.09999942779541 10.020055770874 6.85999965667725 9.62005615234375 C 6.56666660308838 9.12672328948975 6.15999984741211 8.88005638122559 5.6399998664856 8.88005638122559 Z M 5.61999988555908 8.44005584716797 C 6.43333292007446 8.44005584716797 7.04666614532471 8.86672306060791 7.46000003814697 9.72005653381348 C 7.52666616439819 9.2667236328125 7.73333263397217 8.98672294616699 8.07999992370605 8.88005638122559 C 8.14666557312012 8.85338973999023 8.21999931335449 8.84005641937256 8.30000019073486 8.84005641937256 C 8.64666652679443 8.84005641937256 8.84000015258789 9.02005672454834 8.88000011444092 9.38005638122559 C 8.8799991607666 9.46005630493164 8.83333301544189 9.68672370910645 8.73999977111816 10.0600566864014 L 8.01999950408936 12.8600559234619 C 7.81999921798706 13.7000560760498 7.67333269119263 14.3000564575195 7.57999992370605 14.6600561141968 C 7.40666627883911 15.3533897399902 7.31999969482422 15.8467226028442 7.31999969482422 16.1400566101074 C 7.31999969482422 16.7533893585205 7.51999950408936 17.0600566864014 7.91999959945679 17.0600566864014 C 8.42666625976563 17.0600566864014 8.85333251953125 16.5267219543457 9.19999980926514 15.4600563049316 C 9.26666641235352 15.2333889007568 9.34666633605957 14.940055847168 9.4399995803833 14.5800561904907 C 9.54666519165039 14.3533897399902 9.63999938964844 14.2333898544312 9.71999931335449 14.2200565338135 C 9.8799991607666 14.2200565338135 9.96000003814697 14.2867231369019 9.96000003814697 14.4200563430786 C 9.96000003814697 14.6200561523438 9.84000015258789 15.0867233276367 9.59999942779541 15.8200559616089 C 9.51999855041504 16.0467224121094 9.43999862670898 16.2400550842285 9.35999965667725 16.4000568389893 C 8.98666572570801 17.1333885192871 8.493332862854 17.5000553131104 7.87999963760376 17.5000553131104 C 7.1333327293396 17.5000553131104 6.59333276748657 17.1800556182861 6.25999975204468 16.5400562286377 C 6.16666603088379 16.3800563812256 6.09999942779541 16.2000560760498 6.05999994277954 16.0000553131104 C 5.21999931335449 17.0000553131104 4.35333299636841 17.5000553131104 3.46000003814697 17.5000553131104 C 2.46000003814697 17.5000553131104 1.71999979019165 17.0467224121094 1.24000000953674 16.1400566101074 C 0.946666598320007 15.6067228317261 0.799999892711639 14.9933891296387 0.799999952316284 14.3000564575195 C 0.799999892711639 12.8600559234619 1.29999995231628 11.52672290802 2.29999995231628 10.3000564575195 C 3.23333311080933 9.18005561828613 4.246666431427 8.56672286987305 5.33999967575073 8.46005630493164 C 5.43333339691162 8.44672298431396 5.52666664123535 8.44005584716797 5.61999988555908 8.44005584716797 Z " fill = "black" />
<path d="M 14.9918003082275 8.44005584716797 C 16.0184669494629 8.44005584716797 16.7384662628174 8.94672298431396 17.1518001556396 9.96005630493164 C 17.5784664154053 9.13339042663574 18.145133972168 8.64005661010742 18.8517990112305 8.480055809021 C 18.9851341247559 8.45339012145996 19.118465423584 8.44005584716797 19.2518005371094 8.44005584716797 C 20.0384674072266 8.44005584716797 20.5918006896973 8.66005706787109 20.9118003845215 9.10005664825439 C 21.0451335906982 9.28672409057617 21.1117992401123 9.50672340393066 21.1118011474609 9.76005554199219 C 21.1117992401123 10.3067226409912 20.8651332855225 10.6733894348145 20.3717994689941 10.8600559234619 C 20.2518005371094 10.9000568389893 20.1384658813477 10.9200572967529 20.0317993164063 10.9200563430786 C 19.618465423584 10.9200572967529 19.3717994689941 10.7400569915771 19.2918014526367 10.3800563812256 C 19.2784671783447 10.3267230987549 19.271800994873 10.2733898162842 19.271800994873 10.2200565338135 C 19.271800994873 9.8200569152832 19.4651336669922 9.50672340393066 19.8517990112305 9.28005599975586 C 19.9717998504639 9.2133903503418 20.0984668731689 9.16672325134277 20.2318000793457 9.14005661010742 C 19.9517993927002 8.96672344207764 19.618465423584 8.88005638122559 19.2318000793457 8.88005638122559 C 18.3251342773438 8.88005638122559 17.6851329803467 9.58672332763672 17.3118000030518 11.0000562667847 C 17.2851333618164 11.080057144165 17.2651329040527 11.1600570678711 17.2518005371094 11.2400560379028 L 16.5718002319336 13.980055809021 C 16.3451328277588 14.8867225646973 16.2318000793457 15.4733896255493 16.2318000793457 15.7400560379028 C 16.2318000793457 16.4333896636963 16.4784660339355 16.8533897399902 16.9717998504639 17.0000553131104 C 17.0784664154053 17.0400562286377 17.1984672546387 17.0600566864014 17.3318004608154 17.0600566864014 C 17.9984664916992 17.0600566864014 18.6051330566406 16.7267227172852 19.1518001556396 16.0600566864014 C 19.5117988586426 15.6333894729614 19.7917995452881 15.0933895111084 19.9918003082275 14.440055847168 C 20.0317993164063 14.2933893203735 20.118465423584 14.2200565338135 20.2518005371094 14.2200565338135 C 20.4118003845215 14.2200565338135 20.4918003082275 14.2867231369019 20.4918003082275 14.4200563430786 C 20.4918003082275 14.7533893585205 20.2851333618164 15.2333898544312 19.8717994689941 15.8600559234619 C 19.1518001556396 16.95339012146 18.2918014526367 17.5000553131104 17.2917995452881 17.5000553131104 C 16.3851318359375 17.5000553131104 15.7251329421997 17.1200561523438 15.3118000030518 16.3600559234619 C 15.2318000793457 16.2400550842285 15.171799659729 16.1133899688721 15.131799697876 15.980055809021 C 14.8118000030518 16.6200561523438 14.3717994689941 17.066722869873 13.8118000030518 17.3200569152832 C 13.5584669113159 17.440055847168 13.2984666824341 17.5000553131104 13.0318002700806 17.5000553131104 C 12.2318000793457 17.5000553131104 11.6718006134033 17.2667217254639 11.3517999649048 16.8000564575195 C 11.218466758728 16.6267223358154 11.1518001556396 16.4200553894043 11.1518001556396 16.1800556182861 C 11.1518001556396 15.6867227554321 11.3651332855225 15.3400564193726 11.7918004989624 15.1400566101074 C 11.9384670257568 15.0600566864014 12.0918006896973 15.020055770874 12.2518005371094 15.020055770874 C 12.6518001556396 15.020055770874 12.8917999267578 15.1867227554321 12.9717998504639 15.520055770874 C 12.9851331710815 15.5867223739624 12.9918003082275 15.6533889770508 12.9918003082275 15.7200565338135 C 12.9918003082275 16.1733894348145 12.7651329040527 16.5067234039307 12.3118000030518 16.7200565338135 C 12.2318000793457 16.7600555419922 12.145133972168 16.7867221832275 12.0517997741699 16.8000564575195 C 12.3318004608154 16.973388671875 12.6651334762573 17.0600566864014 13.0517997741699 17.0600566864014 C 13.7584667205811 17.0600566864014 14.3184661865234 16.5867233276367 14.7318000793457 15.6400556564331 C 14.8118000030518 15.440055847168 14.8851337432861 15.2200565338135 14.9518003463745 14.980055809021 C 15.6718006134033 12.2600564956665 16.0317993164063 10.6733894348145 16.0317993164063 10.2200565338135 C 15.9517993927002 9.39338874816895 15.5917997360229 8.94672298431396 14.9518003463745 8.88005638122559 C 14.2584667205811 8.88005638122559 13.6251335144043 9.23338985443115 13.0517997741699 9.94005584716797 L 13.0517997741699 9.96005630493164 C 13.0517997741699 9.97338962554932 13.0451335906982 9.98005676269531 13.0318002700806 9.98005676269531 C 12.8318004608154 10.2467231750488 12.6518001556396 10.5533905029297 12.4918003082275 10.9000568389893 C 12.4251337051392 11.0600566864014 12.3651332855225 11.2200565338135 12.3118000030518 11.3800563812256 L 12.2718000411987 11.5000562667847 C 12.2451333999634 11.6467227935791 12.1584663391113 11.7200565338135 12.0117998123169 11.7200565338135 C 11.8517999649048 11.7200565338135 11.7718000411987 11.6533889770508 11.7718000411987 11.520055770874 C 11.7718000411987 11.1867237091064 11.9851331710815 10.7067232131958 12.4118003845215 10.0800561904907 C 13.131799697876 8.98672294616699 13.9918003082275 8.44005584716797 14.9918003082275 8.44005584716797 Z " fill = "black" />
<path d="M 25.3203601837158 -0.301784515380859 C 26.3470268249512 -0.301784515380859 27.1450271606445 0.0435495376586914 27.7143592834473 0.73421573638916 C 28.0410270690918 1.13554906845093 28.2276916503906 1.61154890060425 28.2743606567383 2.16221570968628 C 28.2836933135986 2.2462158203125 28.2883605957031 2.33021593093872 28.2883605957031 2.41421556472778 C 28.2883605957031 3.09554958343506 28.0316925048828 3.744215965271 27.5183601379395 4.36021566390991 C 27.2476921081543 4.67754888534546 26.8276920318604 5.0975489616394 26.2583599090576 5.62021541595459 L 25.4043598175049 6.37621593475342 L 25.2643585205078 6.50221586227417 L 23.7803592681885 7.94421577453613 L 26.3003597259521 7.94421577453613 C 27.1216926574707 7.94421577453613 27.5650253295898 7.90688228607178 27.6303596496582 7.83221578598022 C 27.7236938476563 7.70154905319214 27.826358795166 7.28621578216553 27.9383602142334 6.58621597290039 L 28.2883605957031 6.58621597290039 L 27.8963584899902 9.02221584320068 L 22.7023601531982 9.02221584320068 C 22.7023601531982 8.7888822555542 22.7303600311279 8.63954925537109 22.7863597869873 8.57421588897705 L 22.8563594818115 8.50421619415283 L 25.5443592071533 5.50821590423584 C 26.5243587493896 4.40688228607178 27.0143585205078 3.37554931640625 27.0143585205078 2.41421556472778 C 27.0143585205078 1.58354949951172 26.7623596191406 0.953549385070801 26.2583599090576 0.524215698242188 L 26.2443599700928 0.510215699672699 L 26.2303600311279 0.510215699672699 C 25.9316921234131 0.25821590423584 25.5676918029785 0.13221549987793 25.1383590698242 0.132215514779091 C 24.4663600921631 0.13221549987793 23.9296932220459 0.421548843383789 23.5283584594727 1.0002156496048 C 23.4163589477539 1.16821575164795 23.3230266571045 1.35488224029541 23.2483596801758 1.56021547317505 C 23.2763595581055 1.55088233947754 23.3370265960693 1.54621601104736 23.4303588867188 1.54621553421021 C 23.8036918640137 1.54621601104736 24.0416927337646 1.7142162322998 24.144359588623 2.05021572113037 L 24.144359588623 2.06421566009521 C 24.1630249023438 2.12954902648926 24.1723594665527 2.19954919815063 24.1723594665527 2.27421569824219 C 24.1723594665527 2.64754915237427 23.9950256347656 2.88554906845093 23.64035987854 2.98821544647217 C 23.5656929016113 3.0068826675415 23.500358581543 3.01621627807617 23.4443588256836 3.01621580123901 C 23.0990257263184 3.01621627807617 22.8703594207764 2.87154960632324 22.7583599090576 2.58221578598022 C 22.7210254669189 2.47954940795898 22.7023601531982 2.36288261413574 22.7023601531982 2.2322154045105 C 22.7023601531982 1.51354885101318 22.9776935577393 0.897549629211426 23.5283584594727 0.384215384721756 C 24.0230255126953 -0.0731172561645508 24.6203594207764 -0.301784515380859 25.3203601837158 -0.301784515380859 Z " fill = "black" />
<path d="M 41.7268447875977 5.62005615234375 C 41.9935111999512 5.62005615234375 42.1268463134766 5.84005641937256 42.1268463134766 6.28005599975586 L 42.1268463134766 11.8800563812256 L 47.706844329834 11.8800563812256 C 48.1335144042969 11.8800563812256 48.3535118103027 12.0133895874023 48.3668441772461 12.2800559997559 C 48.3668441772461 12.5467224121094 48.146842956543 12.6800565719604 47.706844329834 12.6800556182861 L 42.1268463134766 12.6800556182861 L 42.1268463134766 18.2800559997559 C 42.1268463134766 18.7067222595215 41.9935111999512 18.9267234802246 41.7268447875977 18.940055847168 C 41.4601783752441 18.940055847168 41.326847076416 18.7200565338135 41.326847076416 18.2800559997559 L 41.326847076416 12.6800556182861 L 35.7268447875977 12.6800556182861 C 35.300178527832 12.6800565719604 35.0801773071289 12.5467224121094 35.0668449401855 12.2800559997559 C 35.0668449401855 12.0133895874023 35.2868461608887 11.8800563812256 35.7268447875977 11.8800563812256 L 41.326847076416 11.8800563812256 L 41.326847076416 6.28005599975586 C 41.326847076416 5.85338973999023 41.4601783752441 5.63339042663574 41.7268447875977 5.62005615234375 Z " fill = "black" />
<path d="M 59.5469207763672 8.88005638122559 C 58.7469215393066 8.88005638122559 57.9469223022461 9.41339015960693 57.1469230651855 10.4800567626953 C 57.0402565002441 10.6133899688721 56.9402542114258 10.8467235565186 56.846923828125 11.1800556182861 L 56.4069213867188 13.020055770874 C 56.1935882568359 13.8600559234619 56.0869216918945 14.533390045166 56.0869216918945 15.0400562286377 C 56.0869216918945 16.1867218017578 56.4335899353027 16.8467235565186 57.1269226074219 17.020055770874 C 57.2202568054199 17.0467224121094 57.320255279541 17.0600566864014 57.4269218444824 17.0600566864014 C 58.1335906982422 17.0600566864014 58.793586730957 16.5933895111084 59.4069213867188 15.6600561141968 C 59.5402565002441 15.4600563049316 59.6669235229492 15.2400560379028 59.786922454834 15.0000562667847 C 60.1469230651855 14.2400560379028 60.4469223022461 13.2133893966675 60.6869201660156 11.9200563430786 C 60.7669219970703 11.45339012146 60.8069229125977 11.066722869873 60.8069229125977 10.7600555419922 C 60.8069229125977 9.69338989257813 60.4802551269531 9.08005619049072 59.8269233703613 8.92005634307861 L 59.8069229125977 8.90005588531494 C 59.726921081543 8.88672256469727 59.6402549743652 8.88005638122559 59.5469207763672 8.88005638122559 Z M 58.4669227600098 3.40005588531494 C 58.6402549743652 3.40005588531494 58.726921081543 3.47338962554932 58.726921081543 3.62005615234375 L 57.2469215393066 9.64005661010742 C 58.0202560424805 8.84005641937256 58.8002548217773 8.44005584716797 59.5869216918945 8.44005584716797 C 60.5869216918945 8.44005584716797 61.3335876464844 8.90005683898926 61.8269233703613 9.82005596160889 C 62.1069221496582 10.3533897399902 62.2469215393066 10.9600563049316 62.2469215393066 11.6400566101074 C 62.2469215393066 13.0533895492554 61.753589630127 14.3733892440796 60.7669219970703 15.6000556945801 C 59.846923828125 16.7333889007568 58.8335876464844 17.3600559234619 57.726921081543 17.4800567626953 C 57.6202545166016 17.4933891296387 57.5202560424805 17.5000553131104 57.4269218444824 17.5000553131104 C 56.4669227600098 17.5000553131104 55.753589630127 17.0533885955811 55.286922454834 16.1600551605225 C 55.0202560424805 15.6533889770508 54.8869209289551 15.0533895492554 54.8869209289551 14.3600559234619 C 54.8869209289551 13.9067230224609 54.9935874938965 13.2333889007568 55.2069206237793 12.3400554656982 L 56.846923828125 5.82005596160889 C 57.0335884094238 5.03339004516602 57.1269226074219 4.62005710601807 57.1269226074219 4.58005619049072 C 57.1269226074219 4.43338966369629 57.0335884094238 4.34005641937256 56.846923828125 4.30005645751953 C 56.6869201660156 4.2600564956665 56.4469223022461 4.24005699157715 56.1269226074219 4.24005603790283 C 55.8335876464844 4.24005699157715 55.6735877990723 4.16005706787109 55.6469230651855 4.00005626678467 C 55.6469230651855 3.77338981628418 55.7735900878906 3.64005661010742 56.0269241333008 3.60005664825439 L 58.4669227600098 3.40005588531494 Z " fill = "black" />
<path d="M 66.9502639770508 8.44005584716797 C 67.9769287109375 8.44005584716797 68.6969299316406 8.94672298431396 69.1102600097656 9.96005630493164 C 69.5369262695313 9.13339042663574 70.1035919189453 8.64005661010742 70.8102645874023 8.480055809021 C 70.9435958862305 8.45339012145996 71.0769271850586 8.44005584716797 71.2102584838867 8.44005584716797 C 71.9969253540039 8.44005584716797 72.5502624511719 8.66005706787109 72.8702621459961 9.10005664825439 C 73.0035934448242 9.28672409057617 73.0702590942383 9.50672340393066 73.0702590942383 9.76005554199219 C 73.0702590942383 10.3067226409912 72.8235931396484 10.6733894348145 72.3302612304688 10.8600559234619 C 72.2102661132813 10.9000568389893 72.0969314575195 10.9200572967529 71.9902648925781 10.9200563430786 C 71.5769271850586 10.9200572967529 71.3302612304688 10.7400569915771 71.2502593994141 10.3800563812256 C 71.236930847168 10.3267230987549 71.2302627563477 10.2733898162842 71.2302627563477 10.2200565338135 C 71.2302627563477 9.8200569152832 71.4235992431641 9.50672340393066 71.8102645874023 9.28005599975586 C 71.9302597045898 9.2133903503418 72.0569305419922 9.16672325134277 72.1902618408203 9.14005661010742 C 71.9102630615234 8.96672344207764 71.5769271850586 8.88005638122559 71.1902618408203 8.88005638122559 C 70.2835922241211 8.88005638122559 69.6435928344727 9.58672332763672 69.270263671875 11.0000562667847 C 69.2435913085938 11.080057144165 69.2235946655273 11.1600570678711 69.2102584838867 11.2400560379028 L 68.5302581787109 13.980055809021 C 68.303596496582 14.8867225646973 68.1902618408203 15.4733896255493 68.1902618408203 15.7400560379028 C 68.1902618408203 16.4333896636963 68.4369277954102 16.8533897399902 68.9302597045898 17.0000553131104 C 69.0369262695313 17.0400562286377 69.1569290161133 17.0600566864014 69.2902603149414 17.0600566864014 C 69.9569244384766 17.0600566864014 70.5635986328125 16.7267227172852 71.1102600097656 16.0600566864014 C 71.4702606201172 15.6333894729614 71.7502593994141 15.0933895111084 71.9502639770508 14.440055847168 C 71.9902648925781 14.2933893203735 72.0769271850586 14.2200565338135 72.2102584838867 14.2200565338135 C 72.3702621459961 14.2200565338135 72.4502639770508 14.2867231369019 72.4502639770508 14.4200563430786 C 72.4502639770508 14.7533893585205 72.2435913085938 15.2333898544312 71.8302612304688 15.8600559234619 C 71.1102600097656 16.95339012146 70.2502593994141 17.5000553131104 69.2502593994141 17.5000553131104 C 68.3435974121094 17.5000553131104 67.68359375 17.1200561523438 67.270263671875 16.3600559234619 C 67.1902618408203 16.2400550842285 67.1302642822266 16.1133899688721 67.0902633666992 15.980055809021 C 66.770263671875 16.6200561523438 66.3302612304688 17.066722869873 65.770263671875 17.3200569152832 C 65.5169296264648 17.440055847168 65.2569274902344 17.5000553131104 64.9902648925781 17.5000553131104 C 64.1902618408203 17.5000553131104 63.6302604675293 17.2667217254639 63.3102607727051 16.8000564575195 C 63.176929473877 16.6267223358154 63.1102600097656 16.4200553894043 63.1102638244629 16.1800556182861 C 63.1102600097656 15.6867227554321 63.3235969543457 15.3400564193726 63.7502632141113 15.1400566101074 C 63.8969268798828 15.0600566864014 64.0502624511719 15.020055770874 64.2102584838867 15.020055770874 C 64.6102600097656 15.020055770874 64.8502655029297 15.1867227554321 64.9302597045898 15.520055770874 C 64.9435958862305 15.5867223739624 64.9502639770508 15.6533889770508 64.9502639770508 15.7200565338135 C 64.9502639770508 16.1733894348145 64.7235946655273 16.5067234039307 64.270263671875 16.7200565338135 C 64.1902618408203 16.7600555419922 64.1035919189453 16.7867221832275 64.0102615356445 16.8000564575195 C 64.2902603149414 16.973388671875 64.6235961914063 17.0600566864014 65.0102615356445 17.0600566864014 C 65.716926574707 17.0600566864014 66.2769317626953 16.5867233276367 66.6902618408203 15.6400556564331 C 66.770263671875 15.440055847168 66.8435974121094 15.2200565338135 66.9102630615234 14.980055809021 C 67.6302642822266 12.2600564956665 67.9902648925781 10.6733894348145 67.9902648925781 10.2200565338135 C 67.9102630615234 9.39338874816895 67.5502624511719 8.94672298431396 66.9102630615234 8.88005638122559 C 66.216926574707 8.88005638122559 65.5835952758789 9.23338985443115 65.0102615356445 9.94005584716797 L 65.0102615356445 9.96005630493164 C 65.0102615356445 9.97338962554932 65.0035934448242 9.98005676269531 64.9902648925781 9.98005676269531 C 64.7902603149414 10.2467231750488 64.6102600097656 10.5533905029297 64.4502639770508 10.9000568389893 C 64.3835983276367 11.0600566864014 64.3235931396484 11.2200565338135 64.270263671875 11.3800563812256 L 64.2302627563477 11.5000562667847 C 64.2035980224609 11.6467227935791 64.1169281005859 11.7200565338135 63.9702606201172 11.7200565338135 C 63.8102607727051 11.7200565338135 63.7302627563477 11.6533889770508 63.7302627563477 11.520055770874 C 63.7302627563477 11.1867237091064 63.9435958862305 10.7067232131958 64.3702621459961 10.0800561904907 C 65.0902633666992 8.98672294616699 65.9502639770508 8.44005584716797 66.9502639770508 8.44005584716797 Z " fill = "black" />
<path d="M 86.1852798461914 5.62005615234375 C 86.4519500732422 5.62005615234375 86.5852813720703 5.84005641937256 86.5852813720703 6.28005599975586 L 86.5852813720703 11.8800563812256 L 92.165283203125 11.8800563812256 C 92.5919494628906 11.8800563812256 92.8119506835938 12.0133895874023 92.8252792358398 12.2800559997559 C 92.8252792358398 12.5467224121094 92.6052780151367 12.6800565719604 92.165283203125 12.6800556182861 L 86.5852813720703 12.6800556182861 L 86.5852813720703 18.2800559997559 C 86.5852813720703 18.7067222595215 86.4519500732422 18.9267234802246 86.1852798461914 18.940055847168 C 85.9186172485352 18.940055847168 85.7852783203125 18.7200565338135 85.7852783203125 18.2800559997559 L 85.7852783203125 12.6800556182861 L 80.1852798461914 12.6800556182861 C 79.7586135864258 12.6800565719604 79.5386123657227 12.5467224121094 79.5252838134766 12.2800559997559 C 79.5252838134766 12.0133895874023 79.7452774047852 11.8800563812256 80.1852798461914 11.8800563812256 L 85.7852783203125 11.8800563812256 L 85.7852783203125 6.28005599975586 C 85.7852783203125 5.85338973999023 85.9186172485352 5.63339042663574 86.1852798461914 5.62005615234375 Z " fill = "black" />
<path d="M 104.585357666016 8.44005584716797 C 105.612022399902 8.44005584716797 106.325355529785 8.75338935852051 106.725357055664 9.38005638122559 C 106.872024536133 9.62005615234375 106.945358276367 9.88005638122559 106.945358276367 10.1600561141968 C 106.945358276367 10.7467231750488 106.712020874023 11.1467227935791 106.24535369873 11.3600559234619 C 106.112022399902 11.4133892059326 105.972023010254 11.440055847168 105.825355529785 11.440055847168 C 105.425354003906 11.440055847168 105.185356140137 11.2667236328125 105.105354309082 10.9200563430786 C 105.092025756836 10.8667230606079 105.085357666016 10.8067226409912 105.085357666016 10.7400560379028 C 105.085357666016 10.446722984314 105.205360412598 10.1867227554321 105.445358276367 9.96005630493164 C 105.632026672363 9.77338981628418 105.925354003906 9.68005657196045 106.325355529785 9.68005561828613 C 105.952026367188 9.2000560760498 105.378692626953 8.93338966369629 104.605354309082 8.88005638122559 C 103.738693237305 8.88005638122559 102.952026367188 9.3200569152832 102.24535369873 10.2000560760498 C 102.072021484375 10.4133892059326 101.91869354248 10.6400566101074 101.785354614258 10.8800563812256 C 101.252021789551 11.8533897399902 100.90535736084 13.0000562667847 100.74535369873 14.3200559616089 C 100.718688964844 14.533390045166 100.705360412598 14.7200565338135 100.705360412598 14.8800563812256 C 100.705360412598 15.9733896255493 101.078689575195 16.6600551605225 101.825355529785 16.940055847168 C 102.012023925781 17.020055770874 102.238693237305 17.0600566864014 102.505355834961 17.0600566864014 C 103.705360412598 17.0600566864014 104.785354614258 16.6600551605225 105.74535369873 15.8600559234619 C 106.025360107422 15.6333894729614 106.278686523438 15.3733892440796 106.505355834961 15.0800561904907 C 106.598693847656 14.946722984314 106.685356140137 14.8800563812256 106.765357971191 14.8800563812256 C 106.885360717773 14.8800563812256 106.965354919434 14.9667224884033 107.005355834961 15.1400566101074 C 107.005355834961 15.2867231369019 106.778686523438 15.5733890533447 106.325355529785 16.0000553131104 C 105.218688964844 17.0000553131104 103.932022094727 17.5000553131104 102.465354919434 17.5000553131104 C 101.198692321777 17.5000553131104 100.278694152832 16.9933891296387 99.7053604125977 15.980055809021 C 99.3853607177734 15.4333896636963 99.2253570556641 14.8133897781372 99.2253570556641 14.1200561523438 C 99.2253570556641 12.7600564956665 99.7453536987305 11.5000562667847 100.785354614258 10.3400554656982 C 101.812026977539 9.19338989257813 102.958686828613 8.56672286987305 104.225357055664 8.46005630493164 C 104.345359802246 8.44672298431396 104.465354919434 8.44005584716797 104.585357666016 8.44005584716797 Z " fill = "black" />
<path d="M 114.416053771973 13.8200559616089 L 126.356048583984 13.8200559616089 C 126.78271484375 13.8200559616089 127.009384155273 13.9533891677856 127.03604888916 14.2200565338135 C 127.03604888916 14.486722946167 126.816047668457 14.6200561523438 126.376052856445 14.6200561523438 L 114.396049499512 14.6200561523438 C 113.969383239746 14.6200561523438 113.749382019043 14.486722946167 113.736053466797 14.2200565338135 C 113.736053466797 13.9533891677856 113.962715148926 13.8200559616089 114.416053771973 13.8200559616089 Z M 114.396049499512 9.94005584716797 L 126.376052856445 9.94005584716797 C 126.802719116211 9.94005584716797 127.022720336914 10.0733890533447 127.03604888916 10.3400554656982 C 127.03604888916 10.6067228317261 126.809387207031 10.7400560379028 126.356048583984 10.7400560379028 L 114.416053771973 10.7400560379028 C 113.989387512207 10.7400560379028 113.762718200684 10.6067228317261 113.736053466797 10.3400554656982 C 113.736053466797 10.0733890533447 113.956047058105 9.94005584716797 114.396049499512 9.94005584716797 Z " fill = "black" />
<path d="M 138.707244873047 4.40005588531494 C 137.773910522461 4.40005683898926 137.09391784668 4.86672306060791 136.667251586914 5.80005645751953 C 136.520584106445 6.12005615234375 136.407241821289 6.50672340393066 136.327255249023 6.96005630493164 C 136.220581054688 7.68005657196045 136.167251586914 8.90672302246094 136.167251586914 10.6400566101074 C 136.167251586914 12.6533889770508 136.240585327148 14.0600566864014 136.387252807617 14.8600559234619 C 136.627243041992 16.1400566101074 137.213912963867 16.9200553894043 138.147247314453 17.2000560760498 C 138.333923339844 17.2533893585205 138.520584106445 17.2800559997559 138.707244873047 17.2800559997559 C 139.547241210938 17.2800559997559 140.193908691406 16.8733901977539 140.647247314453 16.0600566864014 C 140.833923339844 15.7000560760498 140.967254638672 15.2733898162842 141.047241210938 14.7800559997559 C 141.193908691406 13.9267234802246 141.267242431641 12.5467224121094 141.267242431641 10.6400566101074 C 141.267242431641 8.78672313690186 141.200576782227 7.48672294616699 141.067245483398 6.74005603790283 C 140.827255249023 5.47339057922363 140.213912963867 4.7133903503418 139.227249145508 4.46005630493164 C 139.053909301758 4.42005634307861 138.880584716797 4.40005683898926 138.707244873047 4.40005588531494 Z M 138.487243652344 3.96005630493164 L 138.727249145508 3.96005630493164 C 139.913909912109 3.96005630493164 140.880584716797 4.43338966369629 141.627243041992 5.38005638122559 L 141.627243041992 5.40005588531494 C 141.813919067383 5.64005661010742 141.980575561523 5.90672302246094 142.127243041992 6.2000560760498 C 142.660583496094 7.33338928222656 142.92724609375 8.89338970184326 142.92724609375 10.8800563812256 C 142.92724609375 12.8267230987549 142.680587768555 14.3333892822266 142.187255859375 15.4000558853149 C 141.400588989258 16.8933887481689 140.240585327148 17.6667232513428 138.707244873047 17.7200565338135 C 137.493911743164 17.7200565338135 136.520584106445 17.2400550842285 135.787246704102 16.2800559997559 C 135.640579223633 16.1067218780518 135.513916015625 15.9133892059326 135.407241821289 15.7000560760498 C 134.807250976563 14.5933895111084 134.507247924805 12.986722946167 134.507247924805 10.8800563812256 C 134.507247924805 8.92005634307861 134.753921508789 7.40672302246094 135.247253417969 6.34005641937256 C 135.913909912109 4.84672355651855 136.993911743164 4.05339050292969 138.487243652344 3.96005630493164 Z " fill = "black" />

</svg>
