<?xml version="1.0" encoding="UTF-8" standalone="no"?>
<!-- Created with Inkscape (http://www.inkscape.org/) -->

<svg
   width="105mm"
   height="74mm"
   viewBox="0 0 105 74"
   version="1.1"
   id="svg5"
   inkscape:version="1.1.1 (3bf5ae0d25, 2021-09-20)"
   sodipodi:docname="map19.svg"
   xmlns:inkscape="http://www.inkscape.org/namespaces/inkscape"
   xmlns:sodipodi="http://sodipodi.sourceforge.net/DTD/sodipodi-0.dtd"
   xmlns="http://www.w3.org/2000/svg"
   xmlns:svg="http://www.w3.org/2000/svg">
  <sodipodi:namedview
     id="namedview7"
     pagecolor="#ffffff"
     bordercolor="#000000"
     borderopacity="0.25"
     inkscape:pageshadow="2"
     inkscape:pageopacity="0.0"
     inkscape:pagecheckerboard="0"
     inkscape:document-units="mm"
     showgrid="false"
     inkscape:zoom="1.8628097"
     inkscape:cx="198.35628"
     inkscape:cy="268.68016"
     inkscape:window-width="1350"
     inkscape:window-height="729"
     inkscape:window-x="49"
     inkscape:window-y="93"
     inkscape:window-maximized="0"
     inkscape:current-layer="svg5" />
  <defs
     id="defs2">
    <marker
       style="overflow:visible"
       id="Arrow1Lstart"
       refX="0.0"
       refY="0.0"
       orient="auto"
       inkscape:stockid="Arrow1Lstart"
       inkscape:isstock="true">
      <path
         transform="scale(0.8) translate(12.5,0)"
         style="fill-rule:evenodd;fill:context-stroke;stroke:context-stroke;stroke-width:1.0pt"
         d="M 0.0,0.0 L 5.0,-5.0 L -12.5,0.0 L 5.0,5.0 L 0.0,0.0 z "
         id="path11489" />
    </marker>
    <linearGradient
       id="linearGradient6508"
       inkscape:swatch="solid">
      <stop
         style="stop-color:#003900;stop-opacity:1;"
         offset="0"
         id="stop6506" />
    </linearGradient>
  </defs>
  <g
     inkscape:label="Layer 1"
     inkscape:groupmode="layer"
     id="layer1">
    <text
       xml:space="preserve"
       style="font-size:3.71795px;font-family:Cambria;-inkscape-font-specification:Cambria;fill:#4d1ca9;stroke:#00075b;stroke-width:0.00278846"
       x="48.506969"
       y="7.699769"
       id="text3364"
       transform="scale(0.73422533,1.3619797)"><tspan
         sodipodi:role="line"
         id="tspan3362"
         style="stroke-width:0.00278846"
         x="48.506969"
         y="7.699769">Pencerminan</tspan></text>
    <path
       style="fill:#4d1ca9;stroke:#00075b;stroke-width:0.102;stroke-miterlimit:4;stroke-dasharray:none"
       d="M 44.314738,16.760076 44.456854,49.00192"
       id="path4124" />
    <path
       style="fill:#4d1ca9;stroke:#00071e;stroke-width:0.102;stroke-miterlimit:4;stroke-dasharray:none;stroke-opacity:1"
       d="m 19.884836,43.746641 48.291746,0.284068"
       id="path4126" />
    <text
       xml:space="preserve"
       style="font-size:2.11667px;font-family:Cambria;-inkscape-font-specification:Cambria;fill:#4d1ca9;stroke:none;stroke-width:0.102;stroke-miterlimit:4;stroke-dasharray:none;stroke-opacity:1"
       x="55.961613"
       y="24.571976"
       id="text5285"><tspan
         sodipodi:role="line"
         id="tspan5283"
         style="stroke-width:0.102;stroke:none"
         x="55.961613"
         y="24.571976">A(x,y)</tspan></text>
    <text
       xml:space="preserve"
       style="font-size:2.11667px;font-family:Cambria;-inkscape-font-specification:Cambria;fill:#4d1ca9;stroke:none;stroke-width:0.102;stroke-miterlimit:4;stroke-dasharray:none;stroke-opacity:1"
       x="28.406908"
       y="24.571976"
       id="text7819"><tspan
         sodipodi:role="line"
         id="tspan7817"
         style="stroke-width:0.102"
         x="28.406908"
         y="24.571976">A'(-x,y)</tspan></text>
    <path
       style="fill:#4d1ca9;stroke:#00071e;stroke-width:0.102;stroke-miterlimit:4;stroke-dasharray:none;stroke-opacity:1;marker-mid:url(#Arrow1Lstart)"
       d="M 20.452974,26.84453 68.74472,27.128598"
       id="path8165" />
    <text
       xml:space="preserve"
       style="font-size:2.11667px;font-family:Cambria;-inkscape-font-specification:Cambria;fill:#4d1ca9;stroke:none;stroke-width:0.102;stroke-miterlimit:4;stroke-dasharray:none;stroke-opacity:1"
       x="72.295586"
       y="46.019196"
       id="text9973"><tspan
         sodipodi:role="line"
         id="tspan9971"
         style="stroke-width:0.102"
         x="72.295586"
         y="46.019196">x</tspan></text>
    <text
       xml:space="preserve"
       style="font-size:2.11667px;font-family:Cambria;-inkscape-font-specification:Cambria;fill:#4d1ca9;stroke:none;stroke-width:0.102;stroke-miterlimit:4;stroke-dasharray:none;stroke-opacity:1"
       x="44.314735"
       y="16.760077"
       id="text11011"><tspan
         sodipodi:role="line"
         id="tspan11009"
         style="stroke-width:0.102"
         x="44.314735"
         y="16.760077">y</tspan></text>
  </g>
  <g
     transform="matrix(0.18664437,0,0,0.13937011,27.350999,58.728364)"
     id="g3972">
    <svg
       version="1.1"
       id="svg3970"
       width="100%"
       height="100%">
      <path
         d="M 9.9200001,4.1956387 5.98,10.795639 h 4.579999 z M 11.059999,1.7156391 c 0.2,0 0.313334,0.066667 0.340001,0.1999998 0.01333,0.040001 0.02667,0.1333342 0.04,0.2799998 l 1.22,12.5000003 c 0.04,0.333334 0.119999,0.533333 0.24,0.6 h 0.02 v 0.02 c 0.16,0.06667 0.506666,0.1 1.04,0.1 0.293333,0 0.446666,0.07333 0.46,0.22 0,0.266667 -0.120001,0.4 -0.360001,0.4 L 11.82,15.975638 H 11.8 l -2.4800003,0.06 h -0.02 c -0.1866675,0 -0.2800007,-0.07333 -0.2800007,-0.22 0.1066666,-0.253334 0.2666664,-0.386667 0.4800005,-0.4 0.9599985,0 1.4399995,-0.22 1.4399995,-0.66 0,0.01333 -0.106668,-1.1 -0.32,-3.34 H 5.5999999 l -1.52,2.56 c -0.1866669,0.333333 -0.2800002,0.58 -0.2799999,0.74 -3e-7,0.413333 0.3133327,0.646667 0.9399998,0.7 0.2133331,0 0.3199997,0.08 0.3200001,0.24 -4e-7,0.253333 -0.126667,0.38 -0.3800001,0.38 L 2.76,15.975638 H 2.68 l -1.68,0.06 H 0.96 c -0.17333335,0 -0.25999999,-0.07333 -0.25999999,-0.22 0,-0.24 0.1,-0.366666 0.29999999,-0.380001 v -0.02 h 0.12 c 0.8399998,-0.05333 1.5266665,-0.413333 2.0599998,-1.08 0.1333332,-0.173333 0.2666667,-0.373334 0.4000001,-0.6 L 10.54,2.0556393 c 0.133332,-0.2133322 0.306666,-0.3266659 0.519999,-0.3400002 z"
         fill="#000000"
         id="path3938" />
      <path
         d="m 21.42004,1.0356388 c 0.133333,10e-7 0.200001,0.066668 0.200001,0.2000008 0,0.066667 -0.08667,0.1800003 -0.260002,0.3399992 -2.146666,2.1866674 -3.22,5.3400011 -3.22,9.4600002 0,4.106666 1.046668,7.226667 3.140002,9.36 0.226665,0.226666 0.34,0.373331 0.34,0.439999 0,0.133333 -0.06667,0.200001 -0.200001,0.200001 -0.16,0 -0.513334,-0.273333 -1.060001,-0.82 -0.826666,-0.826668 -1.513333,-1.806667 -2.06,-2.94 -0.879999,-1.813334 -1.319999,-3.893334 -1.319999,-6.24 0,-2.2533333 0.42,-4.2866671 1.26,-6.0999996 0.693332,-1.4799996 1.573334,-2.666667 2.639999,-3.5600004 0.280001,-0.2266655 0.459999,-0.3399992 0.540001,-0.3400002 z"
         fill="#000000"
         id="path3940" />
      <path
         d="m 27.19784,7.1956387 c 1.026666,0 1.746666,0.5066671 2.16,1.5200004 0.426666,-0.8266659 0.993333,-1.3199997 1.699998,-1.4800005 0.133336,-0.026666 0.266667,-0.04 0.400002,-0.04 0.786667,0 1.34,0.2200012 1.66,0.6600008 0.133335,0.1866674 0.200001,0.4066667 0.200001,0.6599989 0,0.5466671 -0.246666,0.9133338 -0.740002,1.1000003 -0.119999,0.040001 -0.233334,0.060001 -0.34,0.060001 -0.413334,9e-7 -0.66,-0.1799994 -0.739998,-0.54 -0.01333,-0.053333 -0.02,-0.1066666 -0.02,-0.1599999 0,-0.3999996 0.193333,-0.7133331 0.579998,-0.9400005 0.120003,-0.066666 0.246666,-0.1133327 0.380002,-0.1399994 -0.280003,-0.1733331 -0.613335,-0.2600002 -1,-0.2600002 -0.906666,0 -1.546668,0.7066669 -1.920001,2.1199999 -0.02667,0.080001 -0.04667,0.1600008 -0.06,0.2399997 l -0.68,2.7399998 c -0.226668,0.906666 -0.34,1.493333 -0.34,1.76 0,0.693333 0.246665,1.113334 0.739999,1.26 0.106667,0.04 0.226668,0.06 0.360001,0.06 0.666666,0 1.273332,-0.333333 1.82,-1 0.359998,-0.426667 0.639999,-0.966667 0.839998,-1.62 0.04,-0.146667 0.126667,-0.22 0.260002,-0.22 0.16,0 0.239998,0.06667 0.239998,0.2 0,0.333333 -0.206665,0.813334 -0.619999,1.44 -0.719999,1.093333 -1.579998,1.639999 -2.58,1.639999 -0.906668,0 -1.566668,-0.379999 -1.98,-1.139999 -0.08,-0.12 -0.140001,-0.246667 -0.18,-0.38 -0.32,0.64 -0.76,1.086667 -1.32,1.340001 -0.253332,0.119999 -0.513334,0.179998 -0.78,0.179998 -0.799999,0 -1.359999,-0.233333 -1.679999,-0.699999 -0.133333,-0.173334 -0.2,-0.38 -0.2,-0.620001 0,-0.493332 0.213333,-0.839999 0.639999,-1.039999 0.146667,-0.08 0.300001,-0.12 0.460001,-0.12 0.4,0 0.639999,0.166667 0.719999,0.5 0.01334,0.06667 0.02,0.133333 0.02,0.2 0,0.453333 -0.226668,0.786666 -0.680001,0.999999 -0.08,0.04 -0.166666,0.06667 -0.26,0.08 0.280001,0.173333 0.613335,0.26 1,0.26 0.706667,0 1.266667,-0.473334 1.680001,-1.420001 0.08,-0.199999 0.153333,-0.419999 0.220001,-0.659999 0.719999,-2.72 1.079998,-4.3066664 1.079998,-4.7599993 -0.08,-0.8266677 -0.439999,-1.2733335 -1.079998,-1.3400001 -0.693335,0 -1.326668,0.3533335 -1.900002,1.0599995 v 0.02 c 0,0.013333 -0.0067,0.020001 -0.02,0.020001 -0.199999,0.2666664 -0.379999,0.5733337 -0.539999,0.92 -0.06667,0.1599999 -0.126667,0.3199997 -0.180001,0.4799999 l -0.04,0.12 c -0.02667,0.146667 -0.113334,0.22 -0.26,0.22 -0.16,0 -0.24,-0.06667 -0.24,-0.2 0,-0.333333 0.213334,-0.8133335 0.64,-1.4400005 0.719999,-1.0933332 1.58,-1.6400003 2.58,-1.6400003 z"
         fill="#000000"
         id="path3942" />
      <path
         d="m 36.9884,13.915639 c 0.586666,0 0.979999,0.386666 1.18,1.16 0.06667,0.28 0.100002,0.593333 0.100002,0.939999 0,1.293333 -0.420002,2.426667 -1.260002,3.4 -0.226666,0.266666 -0.413334,0.426666 -0.559998,0.480001 -0.133335,-10e-7 -0.2,-0.07333 -0.2,-0.220001 0,-0.06667 0.07333,-0.173332 0.219997,-0.319999 0.800003,-0.8 1.24667,-1.780001 1.34,-2.940001 0.01334,-0.133333 0.02,-0.266666 0.02,-0.4 0,-0.199999 -0.01333,-0.299999 -0.04,-0.299999 -0.01333,0 -0.04666,0.02 -0.1,0.06 -0.186668,0.173333 -0.419998,0.26 -0.7,0.26 -0.493332,0 -0.82,-0.226667 -0.98,-0.68 -0.05333,-0.12 -0.08,-0.246666 -0.08,-0.38 0,-0.48 0.206665,-0.806667 0.619999,-0.98 0.133331,-0.05333 0.279999,-0.08 0.439999,-0.08 z"
         fill="#000000"
         id="path3944" />
      <path
         d="m 46.317326,7.1956387 c 0.706665,0 1.199997,0.3000001 1.479999,0.8999996 0.106667,0.2266674 0.16,0.4733343 0.16,0.7400007 0,0.2799997 -0.133335,0.7600002 -0.400002,1.44 -0.68,1.76 -1.02,3.066667 -1.02,3.92 0,1.08 0.413334,1.62 1.240002,1.62 0.773334,0 1.446666,-0.413333 2.02,-1.24 0.133331,-0.2 0.213333,-0.353334 0.239998,-0.46 l 0.900002,-3.600001 c 0.09333,-0.439998 0.226665,-0.9733321 0.400001,-1.5999991 0.133331,-0.5733328 0.226666,-0.9333334 0.279999,-1.0799999 0.173332,-0.2799997 0.406666,-0.4200001 0.700001,-0.4200001 0.333332,0.066667 0.526664,0.2466669 0.579998,0.54 0,0.1200008 -0.02666,0.2733345 -0.08,0.46 l -1.919998,7.6400001 c -0.32,1.306666 -1.033333,2.366667 -2.14,3.179999 -0.813331,0.6 -1.66,0.900001 -2.540001,0.900001 -0.893333,0 -1.526664,-0.306667 -1.899997,-0.92 -0.146668,-0.253334 -0.220002,-0.526667 -0.220002,-0.82 0,-0.68 0.273335,-1.1 0.82,-1.26 0.106667,-0.02667 0.206665,-0.04 0.299999,-0.04 0.426667,0 0.666668,0.186667 0.720002,0.560002 0.01333,0.04 0.02,0.08667 0.02,0.139999 0,0.306667 -0.133335,0.58 -0.400002,0.82 -0.186664,0.16 -0.473331,0.24 -0.86,0.24 0.240002,0.559999 0.74667,0.84 1.52,0.84 0.826668,0 1.560002,-0.42 2.200001,-1.260001 0.520001,-0.693332 0.933334,-1.633333 1.240002,-2.819999 0.01333,-0.05333 0.03333,-0.140001 0.06,-0.26 -0.599998,0.6 -1.27333,0.899999 -2.02,0.899999 -1.066666,0 -1.793331,-0.393332 -2.18,-1.179999 -0.173333,-0.346667 -0.259999,-0.746667 -0.259999,-1.2 0,-0.733334 0.353333,-2.046667 1.060002,-3.9400006 0.02666,-0.079999 0.06,-0.166666 0.1,-0.2599992 0.226666,-0.6133337 0.34,-1.08 0.34,-1.4000006 0,-0.4266663 -0.166668,-0.6399994 -0.5,-0.6399994 -0.733333,0 -1.333332,0.6066666 -1.799999,1.8199997 v 0.02 c -0.08,0.1999999 -0.153336,0.4133339 -0.220001,0.6400001 -0.146668,0.226667 -0.253334,0.346666 -0.32,0.36 -0.16,0 -0.240002,-0.06667 -0.239998,-0.2 -4e-6,-0.24 0.14,-0.6600007 0.419998,-1.260001 0.586666,-1.2133332 1.326668,-1.8199997 2.220002,-1.8199997 z"
         fill="#000000"
         id="path3946" />
      <path
         d="m 54.242962,1.0356388 c 0.16,10e-7 0.513332,0.2733345 1.060001,0.8200008 0.826664,0.8266667 1.513333,1.8066662 2.059998,2.9399994 0.880001,1.8133335 1.32,3.8933335 1.32,6.24 0,2.253333 -0.419999,4.286667 -1.259999,6.1 -0.693332,1.48 -1.573334,2.666666 -2.639999,3.56 -0.280003,0.226667 -0.460003,0.34 -0.540001,0.34 -0.133335,0 -0.200001,-0.06667 -0.200001,-0.200001 0,-0.06667 0.08667,-0.179998 0.260002,-0.339998 2.146664,-2.186669 3.219998,-5.340001 3.219998,-9.460001 0,-4.0666658 -1,-7.1466658 -3,-9.2399998 l -0.1,-0.1000005 c -0.253333,-0.2399998 -0.38,-0.3933325 -0.38,-0.4599991 0,-0.1333332 0.06667,-0.1999998 0.200001,-0.2000008 z"
         fill="#000000"
         id="path3948" />
      <path
         d="m 63.000763,10.635639 h 10.900001 c 0.426667,0 0.646668,0.133333 0.659996,0.4 0,0.266666 -0.220001,0.4 -0.659996,0.399999 H 63.000763 c -0.426666,10e-7 -0.646668,-0.133333 -0.66,-0.399999 0,-0.266667 0.220001,-0.4 0.66,-0.4 z"
         fill="#000000"
         id="path3950" />
      <path
         d="m 83.851952,5.2356386 c 0.06667,0 0.186668,0.046667 0.36,0.1400004 l 11.080002,5.219999 c 0.253334,0.120001 0.379997,0.266668 0.379997,0.440001 0,0.173334 -0.126663,0.32 -0.379997,0.44 l -11.080002,5.22 c -0.173332,0.09333 -0.293335,0.139999 -0.36,0.139999 -0.213334,0 -0.339997,-0.1 -0.379998,-0.299999 -0.01334,-0.04 -0.02,-0.07333 -0.02,-0.100001 -8e-6,-0.159999 0.126663,-0.306665 0.379997,-0.439999 l 10.5,-4.96 -10.5,-4.9600002 C 83.578621,5.9423065 83.45195,5.795639 83.451958,5.6356392 c -8e-6,-0.2133331 0.1,-0.3399992 0.299995,-0.3800001 0.04,-0.013333 0.07333,-0.020001 0.1,-0.020001 z"
         fill="#000000"
         id="path3952" />
      <path
         d="m 112.82314,4.1956387 -3.93999,6.6000003 h 4.57999 z m 1.14,-2.4799996 c 0.20001,0 0.31333,0.066667 0.34001,0.1999998 0.0133,0.040001 0.0267,0.1333342 0.04,0.2799998 l 1.21999,12.5000003 c 0.04,0.333334 0.12,0.533333 0.24001,0.6 h 0.02 v 0.02 c 0.16001,0.06667 0.50667,0.1 1.04,0.1 0.29334,0 0.44667,0.07333 0.46,0.22 0,0.266667 -0.12,0.4 -0.36,0.4 l -2.24,-0.06 h -0.02 l -2.48001,0.06 h -0.02 c -0.18667,0 -0.28001,-0.07333 -0.28001,-0.22 0.10667,-0.253334 0.26667,-0.386667 0.48,-0.4 0.96,0 1.44,-0.22 1.44001,-0.66 -1e-5,0.01333 -0.10667,-1.1 -0.32,-3.34 h -5.02001 l -1.51999,2.56 c -0.18667,0.333333 -0.28,0.58 -0.28,0.74 0,0.413333 0.31333,0.646667 0.93999,0.7 0.21334,0 0.32,0.08 0.32,0.24 0,0.253333 -0.12666,0.38 -0.37999,0.38 l -1.92,-0.06 h -0.08 l -1.68001,0.06 h -0.04 c -0.17333,0 -0.26,-0.07333 -0.26,-0.22 0,-0.24 0.10001,-0.366666 0.3,-0.380001 v -0.02 h 0.12001 c 0.83999,-0.05333 1.52666,-0.413333 2.06,-1.08 0.13333,-0.173333 0.26666,-0.373334 0.4,-0.6 l 6.96,-11.6799997 c 0.13333,-0.2133322 0.30666,-0.3266659 0.51999,-0.3400002 z"
         fill="#000000"
         id="path3954" />
      <path
         d="m 120.78719,-0.04820204 c 0.31733,0 0.55067,0.13533354 0.7,0.40600014 0.056,0.10266685 0.084,0.21000004 0.084,0.32200003 0,0.12133312 -0.0327,0.25199985 -0.098,0.39199967 l -2.506,5.8800002 c -0.056,0.1306667 -0.11667,0.1960001 -0.182,0.1960001 -0.168,0 -0.308,-0.051333 -0.42,-0.1539998 -0.0373,-0.028 -0.056,-0.060667 -0.056,-0.098 0,-0.018667 0.014,-0.084 0.042,-0.1960001 l 1.694,-6.10400008 c 0.12134,-0.38266612 0.32667,-0.59266615 0.616,-0.63000016 0.0467,-0.0093331 0.0887,-0.0139999 0.126,-0.014 z"
         fill="#000000"
         id="path3956" />
      <path
         d="m 128.67319,1.0356388 c 0.13333,10e-7 0.19999,0.066668 0.19999,0.2000008 0,0.066667 -0.0866,0.1800003 -0.25999,0.3399992 -2.14667,2.1866674 -3.22,5.3400011 -3.22,9.4600002 0,4.106666 1.04667,7.226667 3.14,9.36 0.22667,0.226666 0.33999,0.373331 0.33999,0.439999 0,0.133333 -0.0667,0.200001 -0.19999,0.200001 -0.16001,0 -0.51334,-0.273333 -1.06,-0.82 -0.82667,-0.826668 -1.51334,-1.806667 -2.06,-2.94 -0.88,-1.813334 -1.32,-3.893334 -1.32,-6.24 0,-2.2533333 0.42,-4.2866671 1.26,-6.0999996 0.69333,-1.4799996 1.57333,-2.666667 2.64,-3.5600004 0.28,-0.2266655 0.46,-0.3399992 0.54,-0.3400002 z"
         fill="#000000"
         id="path3958" />
      <path
         d="m 132.351,10.635639 h 10.89999 c 0.42667,0 0.64667,0.133333 0.66001,0.4 0,0.266666 -0.22001,0.4 -0.66001,0.399999 H 132.351 c -0.42668,10e-7 -0.64667,-0.133333 -0.66001,-0.399999 0,-0.266667 0.22001,-0.4 0.66001,-0.4 z"
         fill="#000000"
         id="path3960" />
      <path
         d="m 150.00661,7.1956387 c 1.02667,0 1.74667,0.5066671 2.16,1.5200004 0.42667,-0.8266659 0.99333,-1.3199997 1.7,-1.4800005 0.13333,-0.026666 0.26666,-0.04 0.39999,-0.04 0.78667,0 1.34001,0.2200012 1.66001,0.6600008 0.13333,0.1866674 0.19999,0.4066667 0.19999,0.6599989 0,0.5466671 -0.24666,0.9133338 -0.73999,1.1000003 -0.12001,0.040001 -0.23334,0.060001 -0.33999,0.060001 -0.41335,9e-7 -0.66001,-0.1799994 -0.74001,-0.54 -0.0133,-0.053333 -0.02,-0.1066666 -0.02,-0.1599999 0,-0.3999996 0.19334,-0.7133331 0.58,-0.9400005 0.11999,-0.066666 0.24667,-0.1133327 0.38,-0.1399994 -0.28,-0.1733331 -0.61334,-0.2600002 -1,-0.2600002 -0.90667,0 -1.54667,0.7066669 -1.92,2.1199999 -0.0267,0.080001 -0.0467,0.1600008 -0.06,0.2399997 l -0.67999,2.7399998 c -0.22667,0.906666 -0.34,1.493333 -0.34,1.76 0,0.693333 0.24666,1.113334 0.73999,1.26 0.10668,0.04 0.22667,0.06 0.36,0.06 0.66668,0 1.27333,-0.333333 1.82001,-1 0.36,-0.426667 0.64,-0.966667 0.84,-1.62 0.04,-0.146667 0.12666,-0.22 0.25999,-0.22 0.16001,0 0.24001,0.06667 0.24001,0.2 0,0.333333 -0.20667,0.813334 -0.62,1.44 -0.72,1.093333 -1.58,1.639999 -2.58,1.639999 -0.90666,0 -1.56667,-0.379999 -1.98,-1.139999 -0.08,-0.12 -0.14,-0.246667 -0.18,-0.38 -0.32,0.64 -0.76,1.086667 -1.32,1.340001 -0.25334,0.119999 -0.51333,0.179998 -0.77999,0.179998 -0.80001,0 -1.36001,-0.233333 -1.68001,-0.699999 -0.13333,-0.173334 -0.2,-0.38 -0.2,-0.620001 0,-0.493332 0.21333,-0.839999 0.64,-1.039999 0.14667,-0.08 0.3,-0.12 0.45999,-0.12 0.40001,0 0.64002,0.166667 0.72,0.5 0.0133,0.06667 0.02,0.133333 0.02,0.2 0,0.453333 -0.22667,0.786666 -0.68,0.999999 -0.08,0.04 -0.16667,0.06667 -0.26001,0.08 0.28,0.173333 0.61335,0.26 1,0.26 0.70667,0 1.26668,-0.473334 1.68001,-1.420001 0.08,-0.199999 0.15334,-0.419999 0.22,-0.659999 0.72,-2.72 1.08001,-4.3066664 1.08001,-4.7599993 -0.08,-0.8266677 -0.44001,-1.2733335 -1.08001,-1.3400001 -0.69334,0 -1.32667,0.3533335 -1.90001,1.0599995 v 0.02 c 0,0.013333 -0.007,0.020001 -0.02,0.020001 -0.20002,0.2666664 -0.38001,0.5733337 -0.54001,0.92 -0.0667,0.1599999 -0.12667,0.3199997 -0.18,0.4799999 l -0.04,0.12 c -0.0267,0.146667 -0.11333,0.22 -0.26,0.22 -0.16,0 -0.24,-0.06667 -0.24,-0.2 0,-0.333333 0.21333,-0.8133335 0.64,-1.4400005 0.72,-1.0933332 1.58,-1.6400003 2.58,-1.6400003 z"
         fill="#000000"
         id="path3962" />
      <path
         d="m 159.79716,13.915639 c 0.58667,0 0.98,0.386666 1.18001,1.16 0.0667,0.28 0.1,0.593333 0.1,0.939999 0,1.293333 -0.41999,2.426667 -1.25999,3.4 -0.22667,0.266666 -0.41333,0.426666 -0.56,0.480001 -0.13333,-10e-7 -0.20001,-0.07333 -0.20001,-0.220001 0,-0.06667 0.0733,-0.173332 0.22,-0.319999 0.8,-0.8 1.24667,-1.780001 1.34001,-2.940001 0.0133,-0.133333 0.02,-0.266666 0.02,-0.4 0,-0.199999 -0.0133,-0.299999 -0.04,-0.299999 -0.0133,0 -0.0467,0.02 -0.10001,0.06 -0.18666,0.173333 -0.42,0.26 -0.7,0.26 -0.49333,0 -0.81999,-0.226667 -0.97999,-0.68 -0.0533,-0.12 -0.08,-0.246666 -0.08,-0.38 0,-0.48 0.20666,-0.806667 0.61999,-0.98 0.13333,-0.05333 0.28,-0.08 0.44,-0.08 z"
         fill="#000000"
         id="path3964" />
      <path
         d="m 169.1261,7.1956387 c 0.70666,0 1.2,0.3000001 1.47999,0.8999996 0.10668,0.2266674 0.16001,0.4733343 0.16001,0.7400007 0,0.2799997 -0.13333,0.7600002 -0.4,1.44 -0.68,1.76 -1.02,3.066667 -1.02,3.92 0,1.08 0.41333,1.62 1.23999,1.62 0.77335,0 1.44667,-0.413333 2.02,-1.24 0.13334,-0.2 0.21334,-0.353334 0.24001,-0.46 l 0.89999,-3.600001 c 0.0933,-0.439998 0.22667,-0.9733321 0.40001,-1.5999991 0.13333,-0.5733328 0.22666,-0.9333334 0.28,-1.0799999 0.17333,-0.2799997 0.40666,-0.4200001 0.7,-0.4200001 0.33333,0.066667 0.52667,0.2466669 0.58,0.54 0,0.1200008 -0.0267,0.2733345 -0.08,0.46 l -1.92,7.6400001 c -0.32001,1.306666 -1.03334,2.366667 -2.14,3.179999 -0.81334,0.6 -1.66,0.900001 -2.54001,0.900001 -0.89332,0 -1.52665,-0.306667 -1.89999,-0.92 -0.14667,-0.253334 -0.22,-0.526667 -0.22,-0.82 0,-0.68 0.27333,-1.1 0.82,-1.26 0.10666,-0.02667 0.20667,-0.04 0.29999,-0.04 0.42667,0 0.66667,0.186667 0.72,0.560002 0.0133,0.04 0.02,0.08667 0.02,0.139999 0,0.306667 -0.13333,0.58 -0.4,0.82 -0.18667,0.16 -0.47334,0.24 -0.86,0.24 0.23999,0.559999 0.74666,0.84 1.51999,0.84 0.82668,0 1.56,-0.42 2.20001,-1.260001 0.51999,-0.693332 0.93332,-1.633333 1.23999,-2.819999 0.0133,-0.05333 0.0333,-0.140001 0.06,-0.26 -0.59999,0.6 -1.27333,0.899999 -2.01999,0.899999 -1.06666,0 -1.79333,-0.393332 -2.18,-1.179999 -0.17333,-0.346667 -0.26,-0.746667 -0.26,-1.2 0,-0.733334 0.35333,-2.046667 1.06,-3.9400006 0.0267,-0.079999 0.06,-0.166666 0.1,-0.2599992 0.22666,-0.6133337 0.34,-1.08 0.34,-1.4000006 0,-0.4266663 -0.16667,-0.6399994 -0.5,-0.6399994 -0.73334,0 -1.33334,0.6066666 -1.8,1.8199997 v 0.02 c -0.08,0.1999999 -0.15334,0.4133339 -0.22,0.6400001 -0.14667,0.226667 -0.25333,0.346666 -0.32,0.36 -0.16,0 -0.24,-0.06667 -0.24,-0.2 0,-0.24 0.14,-0.6600007 0.42,-1.260001 0.58667,-1.2133332 1.32666,-1.8199997 2.22,-1.8199997 z"
         fill="#000000"
         id="path3966" />
      <path
         d="m 177.05173,1.0356388 c 0.16,10e-7 0.51333,0.2733345 1.05999,0.8200008 0.82668,0.8266667 1.51334,1.8066662 2.06002,2.9399994 0.87999,1.8133335 1.31999,3.8933335 1.31999,6.24 0,2.253333 -0.42,4.286667 -1.25999,6.1 -0.69335,1.48 -1.57334,2.666666 -2.64,3.56 -0.28,0.226667 -0.46001,0.34 -0.54001,0.34 -0.13333,0 -0.2,-0.06667 -0.2,-0.200001 0,-0.06667 0.0867,-0.179998 0.25999,-0.339998 2.14667,-2.186669 3.22001,-5.340001 3.22001,-9.460001 0,-4.0666658 -1,-7.1466658 -3,-9.2399998 l -0.1,-0.1000005 c -0.25335,-0.2399998 -0.38001,-0.3933325 -0.38001,-0.4599991 0,-0.1333332 0.0667,-0.1999998 0.2,-0.2000008 z"
         fill="#000000"
         id="path3968" />
    </svg>
  </g>
</svg>
