<?xml version="1.0" encoding="UTF-8" ?>
<svg xmlns="http://www.w3.org/2000/svg" version="1.1" >
<path d="M 11.5555801391602 12.1390409469604 C 11.7555799484253 12.1390409469604 11.8889131546021 12.2857074737549 11.9555797576904 12.5790405273438 C 12.1289129257202 13.0857076644897 12.4022464752197 13.4657077789307 12.7755794525146 13.7190408706665 C 12.9622459411621 13.8523740768433 13.0555801391602 13.98570728302 13.0555801391602 14.1190404891968 C 13.0555801391602 14.2657079696655 12.9422464370728 14.4057083129883 12.7155799865723 14.5390405654907 C 12.1155796051025 14.8323745727539 11.5889129638672 15.2657079696655 11.1355800628662 15.8390407562256 C 10.9889125823975 16.0123748779297 10.8622455596924 16.0990409851074 10.7555799484253 16.0990409851074 C 10.5689134597778 16.0990409851074 10.4422464370728 16.005708694458 10.3755798339844 15.8190412521362 C 10.3622465133667 15.7790412902832 10.355580329895 15.7390413284302 10.355580329895 15.6990413665771 C 10.355580329895 15.4857082366943 10.6689128875732 15.0923748016357 11.2955799102783 14.5190410614014 L 4.89557981491089 14.5190410614014 C 4.48224639892578 14.5190410614014 4.25557994842529 14.425708770752 4.21557998657227 14.2390413284302 C 4.20224666595459 14.1990413665771 4.19558000564575 14.1590414047241 4.19558000564575 14.1190404891968 C 4.27557992935181 13.8523740768433 4.50891304016113 13.7190408706665 4.89557981491089 13.7190408706665 L 11.6355800628662 13.7190408706665 C 11.3689126968384 13.3723745346069 11.208911895752 12.9857082366943 11.1555795669556 12.5590410232544 C 11.1555786132813 12.3457088470459 11.2489128112793 12.2123756408691 11.4355802536011 12.1590414047241 C 11.4755792617798 12.1457080841064 11.5155792236328 12.1390409469604 11.5555801391602 12.1390409469604 Z " fill = "black" />
<path d="M 5.24292993545532 17.5790405273438 C 6.26959657669067 17.5790405273438 6.98959636688232 18.0857086181641 7.40292978286743 19.0990409851074 C 7.82959604263306 18.2723751068115 8.39626312255859 17.7790412902832 9.10293006896973 17.6190414428711 C 9.23626327514648 17.5923748016357 9.36959648132324 17.5790405273438 9.5029296875 17.5790405273438 C 10.2895965576172 17.5790405273438 10.8429298400879 17.7990417480469 11.1629304885864 18.2390403747559 C 11.2962636947632 18.425708770752 11.3629293441772 18.6457080841064 11.3629302978516 18.899040222168 C 11.3629293441772 19.445707321167 11.1162633895874 19.8123741149902 10.6229305267334 19.9990406036377 C 10.5029306411743 20.039041519165 10.3895969390869 20.0590419769287 10.2829303741455 20.0590400695801 C 9.86959648132324 20.0590419769287 9.62292957305908 19.8790416717529 9.54293060302734 19.5190410614014 C 9.52959728240967 19.4657077789307 9.52293014526367 19.41237449646 9.52293014526367 19.3590412139893 C 9.52293014526367 18.959041595459 9.71626377105713 18.6457080841064 10.1029300689697 18.4190406799316 C 10.2229299545288 18.3523750305176 10.3495969772339 18.3057079315186 10.4829301834106 18.2790412902832 C 10.2029294967651 18.1057090759277 9.86959648132324 18.0190410614014 9.48293018341064 18.0190410614014 C 8.57626342773438 18.0190410614014 7.93626260757446 18.7257080078125 7.56292963027954 20.1390419006348 C 7.53626298904419 20.2190418243408 7.51626253128052 20.2990417480469 7.5029296875 20.3790397644043 L 6.82292985916138 23.1190414428711 C 6.59626293182373 24.025707244873 6.48292970657349 24.6123733520508 6.48292970657349 24.8790397644043 C 6.48292970657349 25.5723743438721 6.72959613800049 25.992374420166 7.22292947769165 26.1390399932861 C 7.32959604263306 26.1790409088135 7.44959592819214 26.1990413665771 7.58292961120605 26.1990413665771 C 8.24959659576416 26.1990413665771 8.85626316070557 25.8657073974609 9.40293025970459 25.1990413665771 C 9.76292991638184 24.7723731994629 10.042929649353 24.2323741912842 10.2429304122925 23.5790405273438 C 10.2829294204712 23.4323749542236 10.3695955276489 23.3590412139893 10.5029296875 23.3590412139893 C 10.6629304885864 23.3590412139893 10.7429304122925 23.4257068634033 10.7429304122925 23.5590400695801 C 10.7429304122925 23.8923740386963 10.5362634658813 24.3723735809326 10.1229305267334 24.9990406036377 C 9.40293025970459 26.0923748016357 8.54293060302734 26.6390399932861 7.54292964935303 26.6390399932861 C 6.6362624168396 26.6390399932861 5.97626256942749 26.2590408325195 5.56292963027954 25.4990406036377 C 5.48292970657349 25.3790397644043 5.42292928695679 25.2523746490479 5.38292980194092 25.1190414428711 C 5.06292963027954 25.7590408325195 4.62292957305908 26.2057075500488 4.0629301071167 26.459041595459 C 3.8095965385437 26.5790405273438 3.54959630966187 26.6390399932861 3.28292989730835 26.6390399932861 C 2.48292994499207 26.6390399932861 1.92292988300323 26.4057064056396 1.60292994976044 25.9390411376953 C 1.46959662437439 25.7657070159912 1.40292990207672 25.5590400695801 1.40293002128601 25.3190402984619 C 1.40292990207672 24.8257064819336 1.61626327037811 24.479040145874 2.04293012619019 24.2790412902832 C 2.18959665298462 24.1990413665771 2.34292984008789 24.1590404510498 2.50292992591858 24.1590404510498 C 2.90292978286743 24.1590404510498 3.1429295539856 24.3257064819336 3.22292995452881 24.6590404510498 C 3.23626279830933 24.7257080078125 3.24292945861816 24.7923736572266 3.24292993545532 24.8590412139893 C 3.24292945861816 25.3123741149902 3.01626300811768 25.6457080841064 2.5629301071167 25.8590412139893 C 2.48292994499207 25.899040222168 2.39626312255859 25.9257068634033 2.30292987823486 25.9390411376953 C 2.58292984962463 26.1123733520508 2.91626310348511 26.1990413665771 3.30292987823486 26.1990413665771 C 4.00959634780884 26.1990413665771 4.56959629058838 25.7257080078125 4.98292970657349 24.7790412902832 C 5.06292963027954 24.5790405273438 5.13626289367676 24.3590412139893 5.20292997360229 24.1190414428711 C 5.92292976379395 21.399040222168 6.28292989730835 19.8123741149902 6.28292989730835 19.3590412139893 C 6.20292949676514 18.5323734283447 5.84292936325073 18.0857086181641 5.20292997360229 18.0190410614014 C 4.50959634780884 18.0190410614014 3.87626314163208 18.3723754882813 3.30292987823486 19.0790405273438 L 3.30292987823486 19.0990409851074 C 3.30292987823486 19.1123733520508 3.29626321792603 19.1190414428711 3.28292989730835 19.1190414428711 C 3.08292961120605 19.3857078552246 2.90292978286743 19.6923751831055 2.74292993545532 20.039041519165 C 2.67626333236694 20.1990413665771 2.6162633895874 20.3590412139893 2.5629301071167 20.5190410614014 L 2.52292990684509 20.6390419006348 C 2.49626302719116 20.7857074737549 2.40959644317627 20.8590412139893 2.26292991638184 20.8590412139893 C 2.10292983055115 20.8590412139893 2.02292966842651 20.7923736572266 2.02292990684509 20.6590404510498 C 2.02292966842651 20.3257083892822 2.23626327514648 19.8457069396973 2.66293001174927 19.2190399169922 C 3.38292980194092 18.1257076263428 4.24292993545532 17.5790405273438 5.24292993545532 17.5790405273438 Z " fill = "black" />
<path d="M 20.4319915771484 22.959041595459 L 32.3719940185547 22.959041595459 C 32.7986602783203 22.959041595459 33.0253257751465 23.0923748016357 33.0519943237305 23.3590412139893 C 33.0519943237305 23.6257076263428 32.8319931030273 23.7590408325195 32.3919906616211 23.7590408325195 L 20.4119930267334 23.7590408325195 C 19.9853248596191 23.7590408325195 19.7653255462646 23.6257076263428 19.7519931793213 23.3590412139893 C 19.7519912719727 23.0923748016357 19.9786586761475 22.959041595459 20.4319915771484 22.959041595459 Z M 20.4119930267334 19.0790405273438 L 32.3919906616211 19.0790405273438 C 32.8186569213867 19.0790405273438 33.0386581420898 19.2123737335205 33.0519943237305 19.479040145874 C 33.0519943237305 19.7457084655762 32.825325012207 19.8790397644043 32.3719940185547 19.8790397644043 L 20.4319915771484 19.8790397644043 C 20.0053253173828 19.8790397644043 19.7786598205566 19.7457084655762 19.7519931793213 19.479040145874 C 19.7519912719727 19.2123737335205 19.9719924926758 19.0790405273438 20.4119930267334 19.0790405273438 Z " fill = "black" />
<path d="M 45.1631851196289 -0.431119918823242 C 45.4165153503418 -0.431119918823242 45.5631828308105 -0.384452819824219 45.6031837463379 -0.291119605302811 L 45.6031837463379 -0.271120011806488 C 45.6165161132813 -0.231119155883789 45.6231842041016 -0.111119270324707 45.6231842041016 0.0888805538415909 L 45.6231842041016 11.3088798522949 C 45.6231842041016 11.7088794708252 45.703182220459 11.9622135162354 45.8631820678711 12.0688800811768 C 46.0898513793945 12.2022132873535 46.6298484802246 12.2688798904419 47.4831848144531 12.2688798904419 L 48.1231842041016 12.2688798904419 L 48.1231842041016 12.888879776001 C 47.6565170288086 12.8488798141479 46.5765151977539 12.8288793563843 44.8831825256348 12.8288793563843 C 43.1898498535156 12.8288793563843 42.1098480224609 12.8488798141479 41.6431846618652 12.888879776001 L 41.6431846618652 12.2688798904419 L 42.2831840515137 12.2688798904419 C 43.3098487854004 12.2688798904419 43.8965148925781 12.1488800048828 44.0431823730469 11.9088802337646 L 44.0631828308105 11.888879776001 C 44.1165161132813 11.7822132110596 44.143180847168 11.5888795852661 44.1431846618652 11.3088798522949 L 44.1431846618652 0.948880195617676 C 43.4498481750488 1.29554748535156 42.5765151977539 1.46887969970703 41.5231819152832 1.46887969970703 L 41.5231819152832 0.848879873752594 C 43.1231842041016 0.848880767822266 44.3365173339844 0.422214508056641 45.1631851196289 -0.431119918823242 Z " fill = "black" />
<rect x="39.7431844444444" y="21.01905" width="10.00004" height="0.79998" />
<path d="M 44.4831848144531 26.8180618286133 C 45.9498481750488 26.8180618286133 47.0898513793945 27.3113956451416 47.9031829833984 28.2980613708496 C 48.3698501586914 28.871395111084 48.6365165710449 29.5513954162598 48.703182220459 30.338062286377 C 48.7165145874023 30.4580612182617 48.7231826782227 30.5780620574951 48.7231826782227 30.6980628967285 C 48.7231826782227 31.6713943481445 48.3565139770508 32.5980606079102 47.6231842041016 33.4780616760254 C 47.236515045166 33.931396484375 46.6365165710449 34.5313949584961 45.8231811523438 35.2780609130859 L 44.6031837463379 36.3580627441406 L 44.4031829833984 36.5380630493164 L 42.2831840515137 38.5980606079102 L 45.8831825256348 38.5980606079102 C 47.0565147399902 38.5980606079102 47.6898498535156 38.5447273254395 47.7831840515137 38.438060760498 C 47.9165153503418 38.2513961791992 48.0631828308105 37.6580619812012 48.2231826782227 36.6580619812012 L 48.7231826782227 36.6580619812012 L 48.1631851196289 40.1380615234375 L 40.7431831359863 40.1380615234375 C 40.7431831359863 39.8047294616699 40.7831840515137 39.5913963317871 40.8631820678711 39.4980621337891 L 40.9631843566895 39.3980598449707 L 44.8031845092773 35.1180610656738 C 46.203182220459 33.5447273254395 46.9031829833984 32.0713958740234 46.9031829833984 30.6980628967285 C 46.9031829833984 29.5113964080811 46.5431823730469 28.6113967895508 45.8231811523438 27.9980621337891 L 45.8031845092773 27.9780616760254 L 45.7831840515137 27.9780616760254 C 45.356517791748 27.6180610656738 44.8365173339844 27.438060760498 44.2231826782227 27.438060760498 C 43.26318359375 27.438060760498 42.4965171813965 27.8513946533203 41.9231834411621 28.6780624389648 C 41.76318359375 28.918062210083 41.6298484802246 29.1847286224365 41.5231819152832 29.4780616760254 C 41.5631828308105 29.464729309082 41.6498489379883 29.4580631256104 41.7831840515137 29.4580612182617 C 42.3165168762207 29.4580631256104 42.6565170288086 29.6980628967285 42.8031845092773 30.1780624389648 L 42.8031845092773 30.1980628967285 C 42.8298492431641 30.2913951873779 42.8431816101074 30.3913955688477 42.8431816101074 30.4980621337891 C 42.8431816101074 31.0313949584961 42.5898513793945 31.371395111084 42.0831832885742 31.5180625915527 C 41.9765167236328 31.5447273254395 41.8831825256348 31.5580615997314 41.8031845092773 31.5580615997314 C 41.3098487854004 31.5580615997314 40.9831848144531 31.3513946533203 40.8231811523438 30.938060760498 C 40.7698516845703 30.7913951873779 40.7431831359863 30.6247291564941 40.7431831359863 30.438060760498 C 40.7431831359863 29.4113960266113 41.1365165710449 28.5313949584961 41.9231834411621 27.7980613708496 C 42.6298484802246 27.1447296142578 43.4831848144531 26.8180618286133 44.4831848144531 26.8180618286133 Z " fill = "black" />
<path d="M 64.0765686035156 12.1390409469604 C 64.2765655517578 12.1390409469604 64.4099044799805 12.2857074737549 64.4765701293945 12.5790405273438 C 64.64990234375 13.0857076644897 64.9232330322266 13.4657077789307 65.2965698242188 13.7190408706665 C 65.4832305908203 13.8523740768433 65.5765686035156 13.98570728302 65.5765686035156 14.1190404891968 C 65.5765686035156 14.2657079696655 65.4632339477539 14.4057083129883 65.236572265625 14.5390405654907 C 64.6365661621094 14.8323745727539 64.1099014282227 15.2657079696655 63.6565704345703 15.8390407562256 C 63.5099029541016 16.0123748779297 63.3832321166992 16.0990409851074 63.2765693664551 16.0990409851074 C 63.089900970459 16.0990409851074 62.9632339477539 16.005708694458 62.8965682983398 15.8190412521362 C 62.8832359313965 15.7790412902832 62.8765678405762 15.7390413284302 62.8765678405762 15.6990413665771 C 62.8765678405762 15.4857082366943 63.1899032592773 15.0923748016357 63.8165664672852 14.5190410614014 L 57.4165687561035 14.5190410614014 C 57.0032348632813 14.5190410614014 56.7765693664551 14.425708770752 56.7365684509277 14.2390413284302 C 56.7232360839844 14.1990413665771 56.7165679931641 14.1590414047241 56.7165679931641 14.1190404891968 C 56.7965698242188 13.8523740768433 57.029899597168 13.7190408706665 57.4165687561035 13.7190408706665 L 64.1565704345703 13.7190408706665 C 63.8899002075195 13.3723745346069 63.7299003601074 12.9857082366943 63.6765670776367 12.5590410232544 C 63.6765670776367 12.3457088470459 63.7699012756348 12.2123756408691 63.9565696716309 12.1590414047241 C 63.9965667724609 12.1457080841064 64.0365676879883 12.1390409469604 64.0765686035156 12.1390409469604 Z " fill = "black" />
<path d="M 59.9688758850098 18.0190410614014 C 59.2755432128906 18.0190410614014 58.6155433654785 18.4723739624023 57.9888763427734 19.3790397644043 C 57.8688774108887 19.5523738861084 57.755542755127 19.7390403747559 57.6488761901855 19.9390411376953 C 57.2622108459473 20.7123756408691 56.9355430603027 21.8123741149902 56.6688766479492 23.2390403747559 C 56.5888748168945 23.6923751831055 56.5488777160645 24.0523738861084 56.5488777160645 24.3190402984619 C 56.5488777160645 25.2257080078125 56.8022079467773 25.8123741149902 57.3088760375977 26.0790405273438 C 57.4555435180664 26.1590404510498 57.6288757324219 26.1990413665771 57.8288764953613 26.1990413665771 C 58.5755424499512 26.1990413665771 59.3288764953613 25.7257080078125 60.0888748168945 24.7790412902832 C 60.2755432128906 24.5657081604004 60.4022102355957 24.3457069396973 60.4688758850098 24.1190414428711 L 60.4688758850098 24.0990409851074 C 60.4822082519531 24.0723743438721 60.4888763427734 24.0523738861084 60.4888763427734 24.039041519165 L 61.4888763427734 20.1190414428711 C 61.5288772583008 19.9190406799316 61.5488777160645 19.8057079315186 61.5488777160645 19.7790412902832 C 61.5488777160645 19.4990406036377 61.4288749694824 19.1590404510498 61.1888771057129 18.7590408325195 C 60.8955421447754 18.2657089233398 60.4888763427734 18.0190410614014 59.9688758850098 18.0190410614014 Z M 59.9488754272461 17.5790405273438 C 60.7622108459473 17.5790405273438 61.3755416870117 18.0057067871094 61.788875579834 18.8590412139893 C 61.855541229248 18.4057083129883 62.0622100830078 18.1257076263428 62.4088745117188 18.0190410614014 C 62.4755401611328 17.992374420166 62.5488739013672 17.9790420532227 62.6288757324219 17.9790420532227 C 62.9755439758301 17.9790420532227 63.1688766479492 18.1590423583984 63.2088775634766 18.5190410614014 C 63.2088775634766 18.5990409851074 63.1622085571289 18.8257083892822 63.0688781738281 19.1990413665771 L 62.348876953125 21.9990406036377 C 62.1488761901855 22.8390407562256 62.0022087097168 23.4390411376953 61.9088745117188 23.7990417480469 C 61.7355422973633 24.492374420166 61.6488761901855 24.9857082366943 61.6488761901855 25.2790412902832 C 61.6488761901855 25.8923740386963 61.848876953125 26.1990413665771 62.2488746643066 26.1990413665771 C 62.755542755127 26.1990413665771 63.1822090148926 25.6657066345215 63.5288772583008 24.5990409851074 C 63.5955429077148 24.3723735809326 63.6755447387695 24.0790405273438 63.7688751220703 23.7190399169922 C 63.8755416870117 23.492374420166 63.9688758850098 23.3723735809326 64.0488739013672 23.3590412139893 C 64.2088775634766 23.3590412139893 64.2888793945313 23.4257068634033 64.2888793945313 23.5590400695801 C 64.2888793945313 23.7590408325195 64.1688766479492 24.2257080078125 63.9288749694824 24.959041595459 C 63.848876953125 25.1857070922852 63.7688751220703 25.3790397644043 63.6888771057129 25.539041519165 C 63.315544128418 26.2723731994629 62.822208404541 26.6390399932861 62.2088775634766 26.6390399932861 C 61.4622077941895 26.6390399932861 60.9222106933594 26.3190402984619 60.5888748168945 25.6790409088135 C 60.4955444335938 25.5190410614014 60.4288749694824 25.3390407562256 60.3888778686523 25.1390399932861 C 59.5488739013672 26.1390399932861 58.6822090148926 26.6390399932861 57.788875579834 26.6390399932861 C 56.788875579834 26.6390399932861 56.0488777160645 26.1857070922852 55.5688781738281 25.2790412902832 C 55.2755432128906 24.7457084655762 55.1288757324219 24.1323738098145 55.1288757324219 23.4390411376953 C 55.1288757324219 21.9990406036377 55.6288757324219 20.6657066345215 56.6288757324219 19.4390411376953 C 57.5622100830078 18.3190402984619 58.5755424499512 17.7057075500488 59.6688766479492 17.5990409851074 C 59.7622108459473 17.5857086181641 59.8555450439453 17.5790405273438 59.9488754272461 17.5790405273438 Z " fill = "black" />
<path d="M 70.5729827880859 17.5790405273438 C 71.5996551513672 17.5790405273438 72.3196487426758 18.0857086181641 72.7329864501953 19.0990409851074 C 73.1596527099609 18.2723751068115 73.726318359375 17.7790412902832 74.4329833984375 17.6190414428711 C 74.5663146972656 17.5923748016357 74.6996536254883 17.5790405273438 74.8329849243164 17.5790405273438 C 75.6196517944336 17.5790405273438 76.172981262207 17.7990417480469 76.4929809570313 18.2390403747559 C 76.6263198852539 18.425708770752 76.692985534668 18.6457080841064 76.692985534668 18.899040222168 C 76.692985534668 19.445707321167 76.4463195800781 19.8123741149902 75.9529876708984 19.9990406036377 C 75.8329849243164 20.039041519165 75.7196502685547 20.0590419769287 75.6129837036133 20.0590400695801 C 75.1996536254883 20.0590419769287 74.9529876708984 19.8790416717529 74.8729858398438 19.5190410614014 C 74.8596496582031 19.4657077789307 74.8529815673828 19.41237449646 74.8529815673828 19.3590412139893 C 74.8529815673828 18.959041595459 75.0463180541992 18.6457080841064 75.4329833984375 18.4190406799316 C 75.5529861450195 18.3523750305176 75.6796493530273 18.3057079315186 75.81298828125 18.2790412902832 C 75.5329818725586 18.1057090759277 75.1996536254883 18.0190410614014 74.81298828125 18.0190410614014 C 73.9063186645508 18.0190410614014 73.2663192749023 18.7257080078125 72.8929824829102 20.1390419006348 C 72.8663177490234 20.2190418243408 72.8463134765625 20.2990417480469 72.8329849243164 20.3790397644043 L 72.1529846191406 23.1190414428711 C 71.9263153076172 24.025707244873 71.81298828125 24.6123733520508 71.81298828125 24.8790397644043 C 71.81298828125 25.5723743438721 72.0596542358398 25.992374420166 72.5529861450195 26.1390399932861 C 72.6596527099609 26.1790409088135 72.7796478271484 26.1990413665771 72.9129867553711 26.1990413665771 C 73.5796508789063 26.1990413665771 74.1863174438477 25.8657073974609 74.7329864501953 25.1990413665771 C 75.0929870605469 24.7723731994629 75.3729858398438 24.2323741912842 75.5729827880859 23.5790405273438 C 75.6129837036133 23.4323749542236 75.6996459960938 23.3590412139893 75.8329849243164 23.3590412139893 C 75.9929809570313 23.3590412139893 76.0729827880859 23.4257068634033 76.0729827880859 23.5590400695801 C 76.0729827880859 23.8923740386963 75.8663177490234 24.3723735809326 75.4529876708984 24.9990406036377 C 74.7329864501953 26.0923748016357 73.8729858398438 26.6390399932861 72.8729858398438 26.6390399932861 C 71.9663162231445 26.6390399932861 71.3063201904297 26.2590408325195 70.8929824829102 25.4990406036377 C 70.81298828125 25.3790397644043 70.7529830932617 25.2523746490479 70.7129821777344 25.1190414428711 C 70.3929824829102 25.7590408325195 69.9529876708984 26.2057075500488 69.3929824829102 26.459041595459 C 69.1396484375 26.5790405273438 68.8796539306641 26.6390399932861 68.6129837036133 26.6390399932861 C 67.81298828125 26.6390399932861 67.2529830932617 26.4057064056396 66.9329833984375 25.9390411376953 C 66.7996520996094 25.7657070159912 66.7329864501953 25.5590400695801 66.7329864501953 25.3190402984619 C 66.7329864501953 24.8257064819336 66.9463195800781 24.479040145874 67.3729858398438 24.2790412902832 C 67.5196533203125 24.1990413665771 67.672981262207 24.1590404510498 67.8329849243164 24.1590404510498 C 68.2329864501953 24.1590404510498 68.4729843139648 24.3257064819336 68.5529861450195 24.6590404510498 C 68.5663146972656 24.7257080078125 68.5729827880859 24.7923736572266 68.5729827880859 24.8590412139893 C 68.5729827880859 25.3123741149902 68.346321105957 25.6457080841064 67.8929824829102 25.8590412139893 C 67.81298828125 25.899040222168 67.726318359375 25.9257068634033 67.6329879760742 25.9390411376953 C 67.9129867553711 26.1123733520508 68.2463150024414 26.1990413665771 68.6329879760742 26.1990413665771 C 69.3396530151367 26.1990413665771 69.8996505737305 25.7257080078125 70.31298828125 24.7790412902832 C 70.3929824829102 24.5790405273438 70.4663162231445 24.3590412139893 70.5329818725586 24.1190414428711 C 71.2529830932617 21.399040222168 71.6129837036133 19.8123741149902 71.6129837036133 19.3590412139893 C 71.5329818725586 18.5323734283447 71.172981262207 18.0857086181641 70.5329818725586 18.0190410614014 C 69.8396530151367 18.0190410614014 69.2063140869141 18.3723754882813 68.6329879760742 19.0790405273438 L 68.6329879760742 19.0990409851074 C 68.6329879760742 19.1123733520508 68.6263198852539 19.1190414428711 68.6129837036133 19.1190414428711 C 68.4129867553711 19.3857078552246 68.2329864501953 19.6923751831055 68.0729827880859 20.039041519165 C 68.0063171386719 20.1990413665771 67.9463195800781 20.3590412139893 67.8929824829102 20.5190410614014 L 67.8529815673828 20.6390419006348 C 67.8263168334961 20.7857074737549 67.7396545410156 20.8590412139893 67.5929870605469 20.8590412139893 C 67.4329833984375 20.8590412139893 67.3529815673828 20.7923736572266 67.3529815673828 20.6590404510498 C 67.3529815673828 20.3257083892822 67.5663146972656 19.8457069396973 67.9929809570313 19.2190399169922 C 68.7129821777344 18.1257076263428 69.5729827880859 17.5790405273438 70.5729827880859 17.5790405273438 Z " fill = "black" />
<path d="M 80.9015502929688 8.83719921112061 C 81.9282150268555 8.83719921112061 82.7262191772461 9.18253326416016 83.2955474853516 9.87319946289063 C 83.6222152709961 10.2745323181152 83.8088836669922 10.7505321502686 83.8555526733398 11.3011989593506 C 83.8648834228516 11.385199546814 83.8695526123047 11.4692001342773 83.8695526123047 11.5531997680664 C 83.8695526123047 12.2345333099365 83.6128845214844 12.8831996917725 83.0995483398438 13.4991989135742 C 82.8288803100586 13.8165321350098 82.4088821411133 14.2365322113037 81.8395462036133 14.7591991424561 L 80.9855499267578 15.5151996612549 L 80.8455505371094 15.6411991119385 L 79.3615493774414 17.0831985473633 L 81.8815460205078 17.0831985473633 C 82.702880859375 17.0831985473633 83.1462173461914 17.0458660125732 83.2115478515625 16.9711990356445 C 83.3048858642578 16.8405323028564 83.4075469970703 16.425199508667 83.5195465087891 15.7251996994019 L 83.8695526123047 15.7251996994019 L 83.4775466918945 18.1611995697021 L 78.2835464477539 18.1611995697021 C 78.2835464477539 17.9278659820557 78.3115463256836 17.7785320281982 78.367546081543 17.7131996154785 L 78.4375457763672 17.6431999206543 L 81.1255493164063 14.6471996307373 C 82.1055526733398 13.5458660125732 82.5955505371094 12.5145330429077 82.5955505371094 11.5531997680664 C 82.5955505371094 10.7225332260132 82.3435516357422 10.0925331115723 81.8395462036133 9.66319942474365 L 81.8255462646484 9.64919948577881 L 81.8115463256836 9.64919948577881 C 81.5128860473633 9.3971996307373 81.1488800048828 9.27119922637939 80.7195510864258 9.27119922637939 C 80.0475463867188 9.27119922637939 79.5108795166016 9.56053256988525 79.1095504760742 10.139199256897 C 78.9975509643555 10.3071994781494 78.9042129516602 10.4938659667969 78.8295516967773 10.6991996765137 C 78.857551574707 10.689866065979 78.918212890625 10.6851997375488 79.0115509033203 10.6851997375488 C 79.384880065918 10.6851997375488 79.6228790283203 10.8531999588013 79.7255477905273 11.1891994476318 L 79.7255477905273 11.2031993865967 C 79.7442169189453 11.2685327529907 79.753547668457 11.3385334014893 79.753547668457 11.4131994247437 C 79.753547668457 11.7865333557129 79.5762176513672 12.0245323181152 79.221549987793 12.1271991729736 C 79.1468811035156 12.145866394043 79.0815505981445 12.1552000045776 79.0255508422852 12.1551990509033 C 78.6802139282227 12.1552000045776 78.4515533447266 12.0105333328247 78.3395462036133 11.7211990356445 C 78.3022155761719 11.6185331344604 78.2835464477539 11.5018663406372 78.2835464477539 11.3711986541748 C 78.2835464477539 10.6525325775146 78.5588836669922 10.0365333557129 79.1095504760742 9.5231990814209 C 79.6042175292969 9.06586647033691 80.2015533447266 8.83719921112061 80.9015502929688 8.83719921112061 Z " fill = "black" />

</svg>
